<svg width="9" height="12" viewBox="0 0 9 12" fill="none" xmlns="http://www.w3.org/2000/svg">
<path d="M0 0H4.66667C5.72753 0 6.74495 0.421427 7.49509 1.17157C8.24524 1.92172 8.66667 2.93913 8.66667 4C8.66667 5.06087 8.24524 6.07828 7.49509 6.82843C6.74495 7.57857 5.72753 8 4.66667 8H2.66667V12H0V0ZM2.66667 2.66667V5.33333H4.66667C5.02029 5.33333 5.35943 5.19286 5.60948 4.94281C5.85952 4.69276 6 4.35362 6 4C6 3.64638 5.85952 3.30724 5.60948 3.05719C5.35943 2.80714 5.02029 2.66667 4.66667 2.66667H2.66667Z" fill="white"/>
</svg>
