<svg width="14" height="12" viewBox="0 0 14 12" fill="none" xmlns="http://www.w3.org/2000/svg">
<path d="M0.5 11.0834V10.1167C0.8 10.0945 1.06111 10.0334 1.28333 9.93336C1.50556 9.83336 1.72778 9.7278 1.95 9.61669C2.17222 9.50558 2.41667 9.40847 2.68333 9.32536C2.95 9.2418 3.27778 9.20002 3.66667 9.20002C4.06667 9.20002 4.4 9.24736 4.66667 9.34202C4.93333 9.43625 5.186 9.5418 5.42467 9.65869C5.66378 9.77514 5.90556 9.88336 6.15 9.98336C6.39444 10.0834 6.67778 10.1334 7 10.1334C7.32222 10.1334 7.60556 10.0834 7.85 9.98336C8.09444 9.88336 8.33622 9.77514 8.57533 9.65869C8.814 9.5418 9.06933 9.43625 9.34133 9.34202C9.61378 9.24736 9.94444 9.20002 10.3333 9.20002C10.7333 9.20002 11.064 9.2418 11.3253 9.32536C11.5862 9.40847 11.8278 9.50558 12.05 9.61669C12.2722 9.7278 12.4944 9.83336 12.7167 9.93336C12.9389 10.0334 13.2 10.0945 13.5 10.1167V11.0834C13.1333 11.0722 12.8222 11.0167 12.5667 10.9167C12.3111 10.8167 12.0696 10.7111 11.842 10.6C11.614 10.4889 11.3862 10.3889 11.1587 10.3C10.9307 10.2111 10.6556 10.1667 10.3333 10.1667C10.0222 10.1667 9.74733 10.2138 9.50867 10.308C9.26956 10.4027 9.03333 10.5085 8.8 10.6254C8.56667 10.7418 8.30844 10.85 8.02533 10.95C7.74178 11.05 7.4 11.1 7 11.1C6.6 11.1 6.25844 11.05 5.97533 10.95C5.69178 10.85 5.43333 10.7418 5.2 10.6254C4.96667 10.5085 4.73333 10.4027 4.5 10.308C4.26667 10.2138 3.98889 10.1667 3.66667 10.1667C3.35556 10.1667 3.08333 10.2111 2.85 10.3C2.61667 10.3889 2.38622 10.4889 2.15867 10.6C1.93067 10.7111 1.68889 10.8167 1.43333 10.9167C1.17778 11.0167 0.866667 11.0722 0.5 11.0834ZM0.5 8.31669V7.35002C0.8 7.33891 1.06111 7.28336 1.28333 7.18336C1.50556 7.08336 1.72778 6.9778 1.95 6.86669C2.17222 6.75558 2.41667 6.65558 2.68333 6.56669C2.95 6.4778 3.27778 6.43336 3.66667 6.43336C4.06667 6.43336 4.4 6.48047 4.66667 6.57469C4.93333 6.66936 5.186 6.77491 5.42467 6.89136C5.66378 7.00825 5.90556 7.11669 6.15 7.21669C6.39444 7.31669 6.67778 7.36669 7 7.36669C7.32222 7.36669 7.60556 7.31669 7.85 7.21669C8.09444 7.11669 8.33622 7.00825 8.57533 6.89136C8.814 6.77491 9.06933 6.66936 9.34133 6.57469C9.61378 6.48047 9.94444 6.43336 10.3333 6.43336C10.7333 6.43336 11.064 6.4778 11.3253 6.56669C11.5862 6.65558 11.8278 6.75558 12.05 6.86669C12.2722 6.9778 12.4944 7.08336 12.7167 7.18336C12.9389 7.28336 13.2 7.33891 13.5 7.35002V8.31669C13.1333 8.30558 12.8222 8.25002 12.5667 8.15002C12.3111 8.05002 12.0696 7.94447 11.842 7.83336C11.614 7.72225 11.3862 7.62225 11.1587 7.53336C10.9307 7.44447 10.6556 7.40002 10.3333 7.40002C10.0111 7.40002 9.73067 7.44714 9.492 7.54136C9.25289 7.63602 9.01667 7.74158 8.78333 7.85802C8.55 7.97491 8.29444 8.08336 8.01667 8.18336C7.73889 8.28336 7.4 8.33336 7 8.33336C6.6 8.33336 6.25844 8.28336 5.97533 8.18336C5.69178 8.08336 5.43333 7.97491 5.2 7.85802C4.96667 7.74158 4.73333 7.63602 4.5 7.54136C4.26667 7.44714 3.98889 7.40002 3.66667 7.40002C3.35556 7.40002 3.08333 7.44447 2.85 7.53336C2.61667 7.62225 2.38622 7.72225 2.15867 7.83336C1.93067 7.94447 1.68889 8.05002 1.43333 8.15002C1.17778 8.25002 0.866667 8.30558 0.5 8.31669ZM0.5 5.55002V4.58336C0.8 4.57225 1.06111 4.51669 1.28333 4.41669C1.50556 4.31669 1.72778 4.21114 1.95 4.10002C2.17222 3.98891 2.41667 3.88891 2.68333 3.80002C2.95 3.71114 3.27778 3.66669 3.66667 3.66669C4.06667 3.66669 4.4 3.7138 4.66667 3.80802C4.93333 3.90269 5.186 4.00847 5.42467 4.12536C5.66378 4.2418 5.90556 4.35002 6.15 4.45002C6.39444 4.55002 6.67778 4.60002 7 4.60002C7.32222 4.60002 7.60556 4.55002 7.85 4.45002C8.09444 4.35002 8.33622 4.2418 8.57533 4.12536C8.814 4.00847 9.06933 3.90269 9.34133 3.80802C9.61378 3.7138 9.94444 3.66669 10.3333 3.66669C10.7333 3.66669 11.064 3.71114 11.3253 3.80002C11.5862 3.88891 11.8278 3.98891 12.05 4.10002C12.2722 4.21114 12.4944 4.31669 12.7167 4.41669C12.9389 4.51669 13.2 4.57225 13.5 4.58336V5.55002C13.1333 5.53891 12.8222 5.48336 12.5667 5.38336C12.3111 5.28336 12.0696 5.1778 11.842 5.06669C11.614 4.95558 11.3862 4.85558 11.1587 4.76669C10.9307 4.6778 10.6556 4.63336 10.3333 4.63336C10.0222 4.63336 9.74733 4.68047 9.50867 4.77469C9.26956 4.86936 9.03333 4.97491 8.8 5.09136C8.56667 5.20825 8.30844 5.31669 8.02533 5.41669C7.74178 5.51669 7.4 5.56669 7 5.56669C6.6 5.56669 6.25844 5.51669 5.97533 5.41669C5.69178 5.31669 5.43333 5.20825 5.2 5.09136C4.96667 4.97491 4.73333 4.86936 4.5 4.77469C4.26667 4.68047 3.98889 4.63336 3.66667 4.63336C3.35556 4.63336 3.08333 4.6778 2.85 4.76669C2.61667 4.85558 2.38622 4.95558 2.15867 5.06669C1.93067 5.1778 1.68889 5.28336 1.43333 5.38336C1.17778 5.48336 0.866667 5.53891 0.5 5.55002ZM0.5 2.80002V1.83336C0.8 1.81114 1.06111 1.75002 1.28333 1.65002C1.50556 1.55002 1.72778 1.44447 1.95 1.33336C2.17222 1.22225 2.41667 1.12225 2.68333 1.03336C2.95 0.944469 3.27778 0.900024 3.66667 0.900024C4.06667 0.900024 4.4 0.947135 4.66667 1.04136C4.93333 1.13602 5.186 1.24158 5.42467 1.35802C5.66378 1.47491 5.90556 1.58336 6.15 1.68336C6.39444 1.78336 6.67778 1.83336 7 1.83336C7.32222 1.83336 7.60556 1.78336 7.85 1.68336C8.09444 1.58336 8.33622 1.47491 8.57533 1.35802C8.814 1.24158 9.06933 1.13602 9.34133 1.04136C9.61378 0.947135 9.94444 0.900024 10.3333 0.900024C10.7333 0.900024 11.064 0.944469 11.3253 1.03336C11.5862 1.12225 11.8278 1.22225 12.05 1.33336C12.2722 1.44447 12.4944 1.55002 12.7167 1.65002C12.9389 1.75002 13.2 1.81114 13.5 1.83336V2.80002C13.1333 2.78891 12.8222 2.73336 12.5667 2.63336C12.3111 2.53336 12.0696 2.4278 11.842 2.31669C11.614 2.20558 11.3862 2.10269 11.1587 2.00802C10.9307 1.9138 10.6556 1.86669 10.3333 1.86669C10.0222 1.86669 9.74733 1.9138 9.50867 2.00802C9.26956 2.10269 9.03333 2.20825 8.8 2.32469C8.56667 2.44158 8.30844 2.55002 8.02533 2.65002C7.74178 2.75002 7.4 2.80002 7 2.80002C6.6 2.80002 6.25844 2.75002 5.97533 2.65002C5.69178 2.55002 5.43333 2.44158 5.2 2.32469C4.96667 2.20825 4.73333 2.10269 4.5 2.00802C4.26667 1.9138 3.98889 1.86669 3.66667 1.86669C3.35556 1.86669 3.08333 1.9138 2.85 2.00802C2.61667 2.10269 2.38622 2.20558 2.15867 2.31669C1.93067 2.4278 1.68889 2.53336 1.43333 2.63336C1.17778 2.73336 0.866667 2.78891 0.5 2.80002Z" fill="white"/>
</svg>
