<svg width="12" height="14" viewBox="0 0 12 14" fill="none" xmlns="http://www.w3.org/2000/svg">
<path d="M12 0.333313V13.6666H10.6667V8.33331H8.66667V3.66665C8.66667 2.78259 9.01786 1.93474 9.64298 1.30962C10.2681 0.684502 11.1159 0.333313 12 0.333313ZM4 8.26665V13.6666H2.66667V8.26665C1.91387 8.11273 1.23733 7.70356 0.75143 7.10834C0.265532 6.51311 9.40437e-05 5.76835 0 4.99998V0.99998H1.33333V5.66665H2.66667V0.99998H4V5.66665H5.33333V0.99998H6.66667V4.99998C6.66657 5.76835 6.40114 6.51311 5.91524 7.10834C5.42934 7.70356 4.75279 8.11273 4 8.26665Z" fill="white"/>
</svg>
