<svg width="14" height="12" viewBox="0 0 14 12" fill="none" xmlns="http://www.w3.org/2000/svg">
<path d="M0.716797 11.3833V9.79998H10.3668V11.3833H0.716797ZM11.0335 11.3833V9.79998H11.8168V11.3833H11.0335ZM12.4835 11.3833V9.79998H13.2835V11.3833H12.4835ZM11.0335 8.99998V8.13331C11.0335 7.7222 10.9057 7.39442 10.6501 7.14998C10.3946 6.90553 10.089 6.78331 9.73346 6.78331H8.70013C8.13346 6.78331 7.6528 6.58331 7.25813 6.18331C6.86391 5.78331 6.6668 5.29998 6.6668 4.73331C6.6668 4.17775 6.86391 3.70553 7.25813 3.31664C7.6528 2.92775 8.13346 2.73331 8.70013 2.73331V3.53331C8.3668 3.53331 8.07791 3.64709 7.83346 3.87464C7.58902 4.10264 7.4668 4.38886 7.4668 4.73331C7.4668 5.07775 7.58902 5.37509 7.83346 5.62531C8.07791 5.87509 8.3668 5.99998 8.70013 5.99998H9.73346C10.3001 5.99998 10.789 6.19175 11.2001 6.57531C11.6112 6.95842 11.8168 7.42775 11.8168 7.98331V8.99998H11.0335ZM12.4835 8.99998V7.49998C12.4835 6.76664 12.2279 6.14998 11.7168 5.64998C11.2057 5.14998 10.5724 4.89998 9.8168 4.89998V4.09998C10.1501 4.09998 10.4364 3.98042 10.6755 3.74131C10.9141 3.50264 11.0335 3.21664 11.0335 2.88331C11.0335 2.53886 10.9141 2.24442 10.6755 1.99998C10.4364 1.75553 10.1501 1.63331 9.8168 1.63331V0.849976C10.3835 0.849976 10.8612 1.04998 11.2501 1.44998C11.639 1.84998 11.8335 2.32775 11.8335 2.88331C11.8335 3.20553 11.7695 3.49175 11.6415 3.74198C11.5139 3.99175 11.3501 4.20553 11.1501 4.38331C11.7501 4.61664 12.2557 5.0082 12.6668 5.55798C13.0779 6.1082 13.2835 6.75553 13.2835 7.49998V8.99998H12.4835Z" fill="white"/>
</svg>
