<svg width="15" height="15" viewBox="0 0 15 15" fill="none" xmlns="http://www.w3.org/2000/svg">
<path d="M6.66634 0.333313C8.34605 0.333313 9.95695 1.00057 11.1447 2.1883C12.3324 3.37603 12.9997 4.98694 12.9997 6.66665C13.0012 7.65121 12.7722 8.62247 12.331 9.50265L13.973 11.1453C14.098 11.2703 14.1682 11.4399 14.1682 11.6166C14.1682 11.7934 14.098 11.963 13.973 12.088L12.0877 13.9733C11.9627 14.0983 11.7931 14.1685 11.6163 14.1685C11.4396 14.1685 11.27 14.0983 11.145 13.9733L9.50234 12.3313C8.62216 12.7725 7.65091 13.0015 6.66634 13C4.98664 13 3.37573 12.3327 2.188 11.145C1.00027 9.95726 0.333008 8.34635 0.333008 6.66665C0.333008 4.98694 1.00027 3.37603 2.188 2.1883C3.37573 1.00057 4.98664 0.333313 6.66634 0.333313ZM10.2017 9.25865L9.25901 10.2013L11.6163 12.558L12.559 11.6153L10.2017 9.25865ZM11.4443 5.18865L5.18834 11.4446C5.65501 11.5886 6.15167 11.6666 6.66634 11.6666C7.29141 11.6675 7.91106 11.5508 8.49301 11.3226L7.84501 10.6733C7.72003 10.5483 7.64982 10.3788 7.64982 10.202C7.64982 10.0252 7.72003 9.85566 7.84501 9.73065L9.73034 7.84531C9.85536 7.72033 10.0249 7.65012 10.2017 7.65012C10.3784 7.65012 10.548 7.72033 10.673 7.84531L11.3223 8.49331C11.5505 7.91136 11.6672 7.29171 11.6663 6.66665C11.6663 6.15198 11.5883 5.65598 11.4443 5.18865Z" fill="white"/>
</svg>
