<svg width="13" height="14" viewBox="0 0 13 14" fill="none" xmlns="http://www.w3.org/2000/svg">
<path d="M1.54955 7.9C1.62733 7.77778 1.68288 7.64711 1.71622 7.508C1.74955 7.36933 1.76622 7.2 1.76622 7C1.76622 6.64444 1.65511 6.23044 1.43288 5.758C1.21066 5.286 1.09955 4.89444 1.09955 4.58333C1.09955 4.47222 1.11355 4.35 1.14155 4.21667C1.16911 4.08333 1.22733 3.93333 1.31622 3.76667H2.11622C2.01622 3.93333 1.95511 4.08044 1.93288 4.208C1.91066 4.336 1.89955 4.46111 1.89955 4.58333C1.89955 4.87222 2.01066 5.25556 2.23288 5.73333C2.45511 6.21111 2.56622 6.63333 2.56622 7C2.56622 7.2 2.54688 7.36933 2.50822 7.508C2.46911 7.64711 2.41622 7.77778 2.34955 7.9H1.54955ZM5.88288 7.9C5.96066 7.77778 6.01622 7.64711 6.04955 7.508C6.08288 7.36933 6.09955 7.2 6.09955 7C6.09955 6.64444 5.98844 6.23044 5.76622 5.758C5.54399 5.286 5.43288 4.89444 5.43288 4.58333C5.43288 4.47222 5.44688 4.35 5.47488 4.21667C5.50244 4.08333 5.56066 3.93333 5.64955 3.76667H6.44955C6.34955 3.93333 6.28844 4.08044 6.26622 4.208C6.24399 4.336 6.23288 4.46111 6.23288 4.58333C6.23288 4.87222 6.344 5.25556 6.56622 5.73333C6.78844 6.21111 6.89955 6.63333 6.89955 7C6.89955 7.2 6.88022 7.36933 6.84155 7.508C6.80244 7.64711 6.74955 7.77778 6.68288 7.9H5.88288ZM3.71622 7.9C3.79399 7.77778 3.84955 7.64711 3.88288 7.508C3.91622 7.36933 3.93288 7.2 3.93288 7C3.93288 6.64444 3.82177 6.23044 3.59955 5.758C3.37733 5.286 3.26622 4.89444 3.26622 4.58333C3.26622 4.47222 3.28022 4.35 3.30822 4.21667C3.33577 4.08333 3.394 3.93333 3.48288 3.76667H4.28288C4.18288 3.93333 4.12177 4.08044 4.09955 4.208C4.07733 4.336 4.06622 4.46111 4.06622 4.58333C4.06622 4.87222 4.17733 5.25556 4.39955 5.73333C4.62177 6.21111 4.73288 6.63333 4.73288 7C4.73288 7.2 4.71355 7.36933 4.67488 7.508C4.63577 7.64711 4.58288 7.77778 4.51622 7.9H3.71622ZM4.49955 13.5C3.42177 13.5 2.47466 13.1389 1.65822 12.4167C0.841328 11.6944 0.343995 10.8 0.166217 9.73333C0.143995 9.57778 0.182883 9.44444 0.282883 9.33333C0.382884 9.22222 0.510661 9.16667 0.666217 9.16667H7.83288L8.58288 2.11667C8.63844 1.66111 8.83577 1.27778 9.17488 0.966667C9.51355 0.655556 9.92177 0.5 10.3996 0.5C10.9107 0.5 11.344 0.677778 11.6995 1.03333C12.0551 1.38889 12.2329 1.82222 12.2329 2.33333C12.2329 2.45556 12.2244 2.61378 12.2076 2.808C12.1911 3.00267 12.1773 3.11667 12.1662 3.15L11.1829 3.01667C11.1829 2.98333 11.1911 2.88044 11.2076 2.708C11.2244 2.536 11.2329 2.41111 11.2329 2.33333C11.2329 2.1 11.1524 1.90267 10.9916 1.74133C10.8302 1.58044 10.6329 1.5 10.3996 1.5C10.1773 1.5 9.98844 1.57222 9.83288 1.71667C9.67733 1.86111 9.58844 2.03889 9.56622 2.25L8.79955 9.5C8.67733 10.6333 8.21066 11.5833 7.39955 12.35C6.58844 13.1167 5.62177 13.5 4.49955 13.5Z" fill="white"/>
</svg>
