<svg width="11" height="14" viewBox="0 0 11 14" fill="none" xmlns="http://www.w3.org/2000/svg">
<path d="M8.84985 10.0166C9.36096 10.0166 9.79429 10.1944 10.1498 10.55C10.5054 10.9055 10.6832 11.3389 10.6832 11.85C10.6832 12.3611 10.5054 12.7944 10.1498 13.15C9.79429 13.5055 9.36096 13.6833 8.84985 13.6833C8.44985 13.6833 8.08874 13.5639 7.76651 13.325C7.44429 13.0861 7.22763 12.7722 7.11651 12.3833H2.23318L1.54985 13.4333C1.47207 13.5555 1.36929 13.6333 1.24151 13.6666C1.11374 13.7 0.994292 13.6778 0.883181 13.6C0.760959 13.5111 0.680404 13.4028 0.641515 13.275C0.602626 13.1472 0.62207 13.0222 0.699848 12.9L3.73318 8.29998C2.89985 7.97776 2.22485 7.47498 1.70818 6.79165C1.19151 6.10831 0.888737 5.31665 0.799848 4.41665H9.89985C9.81096 5.31665 9.49985 6.10554 8.96651 6.78331C8.43318 7.46109 7.76651 7.96109 6.96651 8.28331L7.93318 9.78331C7.77763 9.86109 7.62763 9.94998 7.48318 10.05C7.33874 10.15 7.22207 10.2611 7.13318 10.3833L5.94985 8.54998C5.88318 8.5722 5.79429 8.58331 5.68318 8.58331H5.03318C4.92207 8.58331 4.82763 8.5722 4.74985 8.54998L2.89985 11.3833H7.11651C7.22763 10.9833 7.44151 10.6555 7.75818 10.4C8.07485 10.1444 8.43874 10.0166 8.84985 10.0166ZM8.84985 12.6833C9.08318 12.6833 9.2804 12.6028 9.44151 12.4416C9.60263 12.2805 9.68318 12.0833 9.68318 11.85C9.68318 11.6166 9.60263 11.4194 9.44151 11.2583C9.2804 11.0972 9.08318 11.0166 8.84985 11.0166C8.61651 11.0166 8.41929 11.0972 8.25818 11.2583C8.09707 11.4194 8.01651 11.6166 8.01651 11.85C8.01651 12.0833 8.09707 12.2805 8.25818 12.4416C8.41929 12.6028 8.61651 12.6833 8.84985 12.6833ZM4.08318 3.78331C4.13874 3.4722 4.1304 3.19998 4.05818 2.96665C3.98596 2.73331 3.82207 2.44442 3.56651 2.09998C3.32207 1.77776 3.16651 1.49165 3.09985 1.24165C3.03318 0.991646 3.02763 0.688869 3.08318 0.333313H3.58318C3.54985 0.69998 3.56651 0.991646 3.63318 1.20831C3.69985 1.42498 3.84985 1.68887 4.08318 1.99998C4.3054 2.31109 4.4554 2.5972 4.53318 2.85831C4.61096 3.11942 4.62763 3.42776 4.58318 3.78331H4.08318ZM5.36651 3.78331C5.39985 3.38331 5.38318 3.07498 5.31651 2.85831C5.24985 2.64165 5.09985 2.38887 4.86651 2.09998C4.62207 1.78887 4.46374 1.50554 4.39151 1.24998C4.31929 0.994424 4.31096 0.688869 4.36651 0.333313H4.86651C4.81096 0.622202 4.81651 0.883313 4.88318 1.11665C4.94985 1.34998 5.11096 1.64442 5.36651 1.99998C5.58874 2.29998 5.73596 2.58331 5.80818 2.84998C5.8804 3.11665 5.89985 3.42776 5.86651 3.78331H5.36651ZM6.63318 3.78331C6.67763 3.39442 6.66651 3.08887 6.59985 2.86665C6.53318 2.64442 6.38318 2.38887 6.14985 2.09998C5.89429 1.77776 5.7304 1.48887 5.65818 1.23331C5.58596 0.977757 5.57763 0.677757 5.63318 0.333313H6.13318C6.07763 0.622202 6.08596 0.883313 6.15818 1.11665C6.2304 1.34998 6.39429 1.64442 6.64985 1.99998C6.87207 2.28887 7.01929 2.56665 7.09151 2.83331C7.16374 3.09998 7.17763 3.41665 7.13318 3.78331H6.63318Z" fill="white"/>
</svg>
