<svg width="14" height="14" viewBox="0 0 14 14" fill="none" xmlns="http://www.w3.org/2000/svg">
<path d="M6.99967 0.333313C10.6817 0.333313 13.6663 3.31798 13.6663 6.99998C13.6663 10.682 10.6817 13.6666 6.99967 13.6666C3.31767 13.6666 0.333008 10.682 0.333008 6.99998C0.333008 3.31798 3.31767 0.333313 6.99967 0.333313ZM6.99967 2.99998C5.93881 2.99998 4.92139 3.42141 4.17125 4.17155C3.4211 4.9217 2.99967 5.93911 2.99967 6.99998C2.99967 8.06085 3.4211 9.07826 4.17125 9.82841C4.92139 10.5786 5.93881 11 6.99967 11C8.06054 11 9.07796 10.5786 9.8281 9.82841C10.5782 9.07826 10.9997 8.06085 10.9997 6.99998C10.9997 5.93911 10.5782 4.9217 9.8281 4.17155C9.07796 3.42141 8.06054 2.99998 6.99967 2.99998ZM6.99967 4.16665C7.32 4.16664 7.63355 4.25894 7.90278 4.4325C8.17201 4.60606 8.38552 4.85354 8.51776 5.1453C8.64999 5.43706 8.69535 5.76074 8.64839 6.07761C8.60144 6.39448 8.46417 6.6911 8.25301 6.93198C8.62967 7.23598 8.86634 7.67665 8.86634 8.16665C8.86634 9.08665 8.03034 9.83331 6.99967 9.83331C5.96901 9.83331 5.13301 9.08665 5.13301 8.16665C5.13301 7.67665 5.36967 7.23598 5.74634 6.93131C5.53539 6.69042 5.3983 6.39386 5.35146 6.0771C5.30463 5.76034 5.35003 5.43679 5.48224 5.14516C5.61445 4.85352 5.82787 4.60615 6.09697 4.43262C6.36608 4.25909 6.67947 4.16675 6.99967 4.16665ZM6.99967 7.49998C6.49767 7.49998 6.13301 7.82531 6.13301 8.16665C6.13301 8.50798 6.49767 8.83331 6.99967 8.83331C7.50167 8.83331 7.86634 8.50798 7.86634 8.16665C7.86634 7.82531 7.50167 7.49998 6.99967 7.49998ZM6.99967 5.16665C6.82286 5.16665 6.65329 5.23688 6.52827 5.36191C6.40325 5.48693 6.33301 5.6565 6.33301 5.83331C6.33301 6.01012 6.40325 6.17969 6.52827 6.30472C6.65329 6.42974 6.82286 6.49998 6.99967 6.49998C7.17649 6.49998 7.34605 6.42974 7.47108 6.30472C7.5961 6.17969 7.66634 6.01012 7.66634 5.83331C7.66634 5.6565 7.5961 5.48693 7.47108 5.36191C7.34605 5.23688 7.17649 5.16665 6.99967 5.16665Z" fill="white"/>
</svg>
