<svg width="16" height="12" viewBox="0 0 16 12" fill="none" xmlns="http://www.w3.org/2000/svg">
<path d="M3.33366 12C3.14477 12 2.98633 11.936 2.85833 11.808C2.73077 11.6804 2.66699 11.5222 2.66699 11.3333V10.6667C2.11144 10.6667 1.63921 10.4722 1.25033 10.0833C0.861437 9.69444 0.666992 9.22222 0.666992 8.66667V5.33333C0.666992 4.96667 0.797659 4.65267 1.05899 4.39133C1.31988 4.13044 1.63366 4 2.00033 4C2.36699 4 2.68077 4.13044 2.94166 4.39133C3.20299 4.65267 3.33366 4.96667 3.33366 5.33333V8H12.667V5.33333C12.667 4.96667 12.7974 4.65267 13.0583 4.39133C13.3197 4.13044 13.6337 4 14.0003 4C14.367 4 14.681 4.13044 14.9423 4.39133C15.2032 4.65267 15.3337 4.96667 15.3337 5.33333V8.66667C15.3337 9.22222 15.1392 9.69444 14.7503 10.0833C14.3614 10.4722 13.8892 10.6667 13.3337 10.6667V11.3333C13.3337 11.5222 13.2697 11.6804 13.1417 11.808C13.0141 11.936 12.8559 12 12.667 12C12.4781 12 12.3199 11.936 12.1923 11.808C12.0643 11.6804 12.0003 11.5222 12.0003 11.3333V10.6667H4.00033V11.3333C4.00033 11.5222 3.93655 11.6804 3.80899 11.808C3.68099 11.936 3.52255 12 3.33366 12ZM4.66699 6.66667V5.33333C4.66699 4.72222 4.48077 4.17489 4.10833 3.69133C3.73633 3.20822 3.25588 2.86667 2.66699 2.66667V2C2.66699 1.44444 2.86144 0.972222 3.25033 0.583333C3.63921 0.194444 4.11144 0 4.66699 0H11.3337C11.8892 0 12.3614 0.194444 12.7503 0.583333C13.1392 0.972222 13.3337 1.44444 13.3337 2V2.66667C12.7337 2.82222 12.2503 3.14711 11.8837 3.64133C11.517 4.136 11.3337 4.7 11.3337 5.33333V6.66667H4.66699Z" fill="white"/>
</svg>
