<svg width="16" height="12" viewBox="0 0 16 12" fill="none" xmlns="http://www.w3.org/2000/svg">
<path fill-rule="evenodd" clip-rule="evenodd" d="M7.99957 8C9.10357 8 9.99957 8.896 9.99957 10C9.99957 11.104 9.10357 12 7.99957 12C6.89557 12 5.99957 11.104 5.99957 10C5.99957 8.896 6.89557 8 7.99957 8ZM7.97357 6C7.96457 6 7.95657 6 7.94757 6C7.36557 6.011 6.79257 6.141 6.26657 6.394C5.77457 6.631 5.33257 6.97 4.97557 7.383C4.79357 7.593 4.63457 7.821 4.49957 8.063C4.49957 8.063 4.49557 8.065 4.49157 8.071C4.22057 8.512 3.51257 8.491 3.10157 8.146C2.69057 7.802 2.61757 7.198 2.93357 6.765C3.05357 6.6 3.11957 6.51 3.11957 6.51C3.19957 6.398 3.28357 6.289 3.37057 6.184C3.89157 5.553 4.54057 5.03 5.26857 4.657C5.81557 4.377 6.40657 4.182 7.01257 4.081C7.28857 4.035 7.56657 4.011 7.84557 4.002C7.89657 4.001 7.94857 4 7.99957 4H8.03857C8.07657 4.001 8.11557 4.001 8.15357 4.002C8.43257 4.011 8.71057 4.035 8.98657 4.081C9.59257 4.182 10.1836 4.377 10.7306 4.657C11.4586 5.03 12.1076 5.553 12.6286 6.184C12.7156 6.289 12.7996 6.398 12.8796 6.51C12.8796 6.51 12.9456 6.6 13.0656 6.765C13.3816 7.198 13.3086 7.802 12.8976 8.146C12.4866 8.491 11.7786 8.512 11.5076 8.071C11.5036 8.065 11.4996 8.063 11.4996 8.063C11.3646 7.821 11.2056 7.593 11.0236 7.383C10.6666 6.97 10.2246 6.631 9.73257 6.394C9.20657 6.141 8.63357 6.011 8.05157 6C8.03457 6 8.01657 6 7.99957 6H7.97357ZM7.94757 2C7.93057 2 7.91357 2 7.89557 2.001C7.52257 2.008 7.15057 2.036 6.78057 2.092C6.03457 2.206 5.30557 2.428 4.62157 2.747C3.51257 3.265 2.53357 4.04 1.76757 4.989C1.76757 4.989 1.76657 4.989 1.76557 4.99C1.43557 5.402 0.800568 5.333 0.420568 4.985C0.0405684 4.637 -0.0134315 4.057 0.297568 3.646C0.379568 3.537 0.424568 3.477 0.424568 3.477C1.34657 2.409 2.49057 1.535 3.77457 0.935C4.63057 0.535 5.54457 0.258 6.47857 0.115C6.93957 0.045 7.40457 0.01 7.87057 0.001C7.93557 0 7.96757 0 7.99957 0H8.05157C8.07157 0 8.09657 0 8.12857 0.001C8.59457 0.01 9.05957 0.045 9.52057 0.115C10.4546 0.258 11.3686 0.535 12.2246 0.935C13.5086 1.535 14.6526 2.409 15.5746 3.477C15.5746 3.477 15.6196 3.537 15.7016 3.646C16.0126 4.057 15.9586 4.637 15.5786 4.985C15.1986 5.333 14.5636 5.402 14.2336 4.99C14.2326 4.989 14.2316 4.989 14.2316 4.989C13.4656 4.04 12.4866 3.265 11.3776 2.747C10.6936 2.428 9.96457 2.206 9.21857 2.092C8.84857 2.036 8.47657 2.008 8.10357 2.001C8.06857 2 8.03357 2 7.99957 2H7.94757Z" fill="white"/>
</svg>
