<svg width="16" height="12" viewBox="0 0 16 12" fill="none" xmlns="http://www.w3.org/2000/svg">
<path d="M11.3337 0.666656C12.3945 0.666656 13.4119 1.08808 14.1621 1.83823C14.9122 2.58838 15.3337 3.60579 15.3337 4.66666V7.33332C15.3337 8.39419 14.9122 9.41161 14.1621 10.1618C13.4119 10.9119 12.3945 11.3333 11.3337 11.3333H4.66699C3.60613 11.3333 2.58871 10.9119 1.83857 10.1618C1.08842 9.41161 0.666992 8.39419 0.666992 7.33332V4.66666C0.666992 3.60579 1.08842 2.58838 1.83857 1.83823C2.58871 1.08808 3.60613 0.666656 4.66699 0.666656H11.3337ZM6.66699 3.99999H5.33366V5.33332H4.00033V6.66666H5.33299L5.33366 7.99999H6.66699L6.66633 6.66666H8.00033V5.33332H6.66699V3.99999ZM12.0003 6.66666H10.667V7.99999H12.0003V6.66666ZM10.667 3.99999H9.33366V5.33332H10.667V3.99999Z" fill="white"/>
</svg>
