<svg width="14" height="14" viewBox="0 0 14 14" fill="none" xmlns="http://www.w3.org/2000/svg">
<path d="M6.99967 6.33334C7.88373 6.33334 8.73158 6.68453 9.3567 7.30965C9.98182 7.93477 10.333 8.78262 10.333 9.66668V13.6667H3.66634V9.66668C3.66634 8.78262 4.01753 7.93477 4.64265 7.30965C5.26777 6.68453 6.11562 6.33334 6.99967 6.33334ZM2.52501 8.33734C2.41891 8.6952 2.35624 9.06452 2.33834 9.43734L2.33301 9.66668V13.6667H0.333008V10.6667C0.332877 10.0917 0.545027 9.53697 0.928764 9.10882C1.3125 8.68066 1.84081 8.40926 2.41234 8.34668L2.52567 8.33734H2.52501ZM11.4743 8.33734C12.0676 8.3735 12.6247 8.63465 13.0321 9.0675C13.4394 9.50035 13.6663 10.0723 13.6663 10.6667V13.6667H11.6663V9.66668C11.6663 9.20468 11.5997 8.75868 11.4743 8.33734ZM2.66634 4.33334C3.10837 4.33334 3.53229 4.50894 3.84485 4.8215C4.15741 5.13406 4.33301 5.55798 4.33301 6.00001C4.33301 6.44204 4.15741 6.86596 3.84485 7.17852C3.53229 7.49108 3.10837 7.66668 2.66634 7.66668C2.22431 7.66668 1.80039 7.49108 1.48783 7.17852C1.17527 6.86596 0.999674 6.44204 0.999674 6.00001C0.999674 5.55798 1.17527 5.13406 1.48783 4.8215C1.80039 4.50894 2.22431 4.33334 2.66634 4.33334ZM11.333 4.33334C11.775 4.33334 12.199 4.50894 12.5115 4.8215C12.8241 5.13406 12.9997 5.55798 12.9997 6.00001C12.9997 6.44204 12.8241 6.86596 12.5115 7.17852C12.199 7.49108 11.775 7.66668 11.333 7.66668C10.891 7.66668 10.4671 7.49108 10.1545 7.17852C9.84194 6.86596 9.66634 6.44204 9.66634 6.00001C9.66634 5.55798 9.84194 5.13406 10.1545 4.8215C10.4671 4.50894 10.891 4.33334 11.333 4.33334ZM6.99967 0.333344C7.70692 0.333344 8.38519 0.614295 8.88529 1.11439C9.38539 1.61449 9.66634 2.29277 9.66634 3.00001C9.66634 3.70725 9.38539 4.38553 8.88529 4.88563C8.38519 5.38573 7.70692 5.66668 6.99967 5.66668C6.29243 5.66668 5.61415 5.38573 5.11406 4.88563C4.61396 4.38553 4.33301 3.70725 4.33301 3.00001C4.33301 2.29277 4.61396 1.61449 5.11406 1.11439C5.61415 0.614295 6.29243 0.333344 6.99967 0.333344Z" fill="white"/>
</svg>
