<svg width="14" height="14" viewBox="0 0 14 14" fill="none" xmlns="http://www.w3.org/2000/svg">
<path d="M13.6663 6.33331H10.8863L13.0463 4.17331L12.1063 3.22665L8.99967 6.33331H7.66634V4.99998L10.773 1.89331L9.82634 0.953313L7.66634 3.11331V0.333313H6.33301V3.11331L4.17301 0.953313L3.22634 1.89331L6.33301 4.99998V6.33331H4.99967L1.89301 3.22665L0.953008 4.17331L3.11301 6.33331H0.333008V7.66665H3.11301L0.953008 9.82665L1.89301 10.7733L4.99967 7.66665H6.33301V8.99998L3.22634 12.1066L4.17301 13.0466L6.33301 10.8866V13.6666H7.66634V10.8866L9.82634 13.0466L10.773 12.1066L7.66634 8.99998V7.66665H8.99967L12.1063 10.7733L13.0463 9.82665L10.8863 7.66665H13.6663V6.33331Z" fill="white"/>
</svg>
