<svg width="14" height="13" viewBox="0 0 14 13" fill="none" xmlns="http://www.w3.org/2000/svg">
<path d="M0.333008 13V11.9333C0.733008 11.9 1.05245 11.7833 1.29134 11.5833C1.53023 11.3833 1.90523 11.2833 2.41634 11.2833C2.92745 11.2833 3.34412 11.4028 3.66634 11.6417C3.98856 11.8806 4.36079 12 4.78301 12C5.20523 12 5.55245 11.8806 5.82467 11.6417C6.0969 11.4028 6.48856 11.2833 6.99967 11.2833C7.51079 11.2833 7.92745 11.4028 8.24967 11.6417C8.5719 11.8806 8.94412 12 9.36634 12C9.78856 12 10.1386 11.8806 10.4163 11.6417C10.6941 11.4028 11.0886 11.2833 11.5997 11.2833C12.1108 11.2833 12.483 11.3833 12.7163 11.5833C12.9497 11.7833 13.2663 11.9 13.6663 11.9333V13C13.2775 12.9667 12.9413 12.8417 12.658 12.625C12.3747 12.4083 12.0219 12.3 11.5997 12.3C11.1775 12.3 10.8163 12.4167 10.5163 12.65C10.2163 12.8833 9.83301 13 9.36634 13C8.89967 13 8.49412 12.8833 8.14967 12.65C7.80523 12.4167 7.4219 12.3 6.99967 12.3C6.57745 12.3 6.20801 12.4167 5.89134 12.65C5.57467 12.8833 5.18301 13 4.71634 13C4.24967 13 3.85523 12.8833 3.53301 12.65C3.21079 12.4167 2.83856 12.3 2.41634 12.3C1.99412 12.3 1.63856 12.4083 1.34967 12.625C1.06079 12.8417 0.721897 12.9667 0.333008 13ZM0.333008 9.86667V8.86667C0.733008 8.83334 1.05245 8.71945 1.29134 8.525C1.53023 8.33056 1.90523 8.23334 2.41634 8.23334C2.92745 8.23334 3.33301 8.33889 3.63301 8.55C3.93301 8.76112 4.29412 8.86667 4.71634 8.86667C5.13856 8.86667 5.4969 8.76112 5.79134 8.55C6.08579 8.33889 6.48856 8.23334 6.99967 8.23334C7.51079 8.23334 7.91634 8.33889 8.21634 8.55C8.51634 8.76112 8.87745 8.86667 9.29967 8.86667C9.7219 8.86667 10.083 8.76112 10.383 8.55C10.683 8.33889 11.0886 8.23334 11.5997 8.23334C12.1108 8.23334 12.483 8.33056 12.7163 8.525C12.9497 8.71945 13.2663 8.83334 13.6663 8.86667V9.86667C13.2775 9.83334 12.9413 9.70834 12.658 9.49167C12.3747 9.275 12.0219 9.16667 11.5997 9.16667C11.1775 9.16667 10.8163 9.28334 10.5163 9.51667C10.2163 9.75 9.83301 9.86667 9.36634 9.86667C8.89967 9.86667 8.49412 9.75 8.14967 9.51667C7.80523 9.28334 7.4219 9.16667 6.99967 9.16667C6.57745 9.16667 6.21912 9.28334 5.92467 9.51667C5.63023 9.75 5.24967 9.86667 4.78301 9.86667C4.31634 9.86667 3.91079 9.75 3.56634 9.51667C3.2219 9.28334 2.83856 9.16667 2.41634 9.16667C1.99412 9.16667 1.63856 9.275 1.34967 9.49167C1.06079 9.70834 0.721897 9.83334 0.333008 9.86667ZM3.79967 6.4L6.04967 4.15L5.14967 3.25C4.7719 2.87223 4.38856 2.61945 3.99967 2.49167C3.61079 2.36389 3.11634 2.3 2.51634 2.3V0.983337C3.31634 0.983337 3.97467 1.08334 4.49134 1.28334C5.00801 1.48334 5.51079 1.82778 5.99967 2.31667L10.2163 6.53334C10.0941 6.63334 9.95245 6.70556 9.79134 6.75C9.63023 6.79445 9.46634 6.81667 9.29967 6.81667C8.87745 6.81667 8.51356 6.7 8.20801 6.46667C7.90245 6.23334 7.49967 6.11667 6.99967 6.11667C6.49967 6.11667 6.09967 6.23334 5.79967 6.46667C5.49967 6.7 5.13856 6.81667 4.71634 6.81667C4.51634 6.81667 4.33579 6.77778 4.17467 6.7C4.01356 6.62223 3.88856 6.52223 3.79967 6.4ZM10.133 1.05C10.5775 1.05 10.9525 1.20278 11.258 1.50834C11.5636 1.81389 11.7163 2.18889 11.7163 2.63334C11.7163 3.07778 11.5636 3.45278 11.258 3.75834C10.9525 4.06389 10.5775 4.21667 10.133 4.21667C9.68856 4.21667 9.31356 4.06389 9.00801 3.75834C8.70245 3.45278 8.54967 3.07778 8.54967 2.63334C8.54967 2.18889 8.70245 1.81389 9.00801 1.50834C9.31356 1.20278 9.68856 1.05 10.133 1.05Z" fill="white"/>
</svg>
