<svg width="10" height="15" viewBox="0 0 10 15" fill="none" xmlns="http://www.w3.org/2000/svg">
<path d="M4.99957 14.3333C3.99768 14.3332 3.01891 14.0322 2.19018 13.4691C1.36145 12.9061 0.720975 12.1071 0.351805 11.1757C-0.0173651 10.2443 -0.0982065 9.22345 0.119763 8.24555C0.337732 7.26765 0.844458 6.37779 1.57424 5.69133C2.46891 4.84933 4.66624 3.33333 4.33291 0C8.33291 2.66667 10.3329 5.33333 6.33291 9.33333C6.99957 9.33333 7.99957 9.33333 9.66624 7.68667C9.84624 8.202 9.99957 8.756 9.99957 9.33333C9.99957 10.6594 9.47279 11.9312 8.53511 12.8689C7.59743 13.8065 6.32566 14.3333 4.99957 14.3333Z" fill="white"/>
</svg>
