<svg width="15" height="12" viewBox="0 0 15 12" fill="none" xmlns="http://www.w3.org/2000/svg">
<path d="M3.00033 4.66667C2.69391 4.66667 2.39049 4.60631 2.1074 4.48905C1.8243 4.37179 1.56708 4.19992 1.35041 3.98325C1.13374 3.76658 0.961868 3.50935 0.844607 3.22626C0.727346 2.94317 0.666992 2.63975 0.666992 2.33333C0.666992 2.02692 0.727346 1.7235 0.844607 1.44041C0.961868 1.15731 1.13374 0.900088 1.35041 0.683418C1.56708 0.466748 1.8243 0.294875 2.1074 0.177614C2.39049 0.0603534 2.69391 -6.45727e-09 3.00033 0C3.61916 1.3041e-08 4.21266 0.245833 4.65024 0.683418C5.08783 1.121 5.33366 1.71449 5.33366 2.33333C5.33366 2.95217 5.08783 3.54566 4.65024 3.98325C4.21266 4.42083 3.61916 4.66667 3.00033 4.66667ZM3.00033 3.33333C3.26554 3.33333 3.5199 3.22798 3.70743 3.04044C3.89497 2.8529 4.00033 2.59855 4.00033 2.33333C4.00033 2.06812 3.89497 1.81376 3.70743 1.62623C3.5199 1.43869 3.26554 1.33333 3.00033 1.33333C2.73511 1.33333 2.48076 1.43869 2.29322 1.62623C2.10568 1.81376 2.00033 2.06812 2.00033 2.33333C2.00033 2.59855 2.10568 2.8529 2.29322 3.04044C2.48076 3.22798 2.73511 3.33333 3.00033 3.33333ZM14.667 4.66667H13.3337C13.3337 3.95942 13.0527 3.28115 12.5526 2.78105C12.0525 2.28095 11.3742 2 10.667 2C9.95975 2 9.28147 2.28095 8.78137 2.78105C8.28128 3.28115 8.00033 3.95942 8.00033 4.66667V8C8.00033 8.70724 8.28128 9.38552 8.78137 9.88562C9.28147 10.3857 9.95975 10.6667 10.667 10.6667C11.3742 10.6667 12.0525 10.3857 12.5526 9.88562C13.0527 9.38552 13.3337 8.70724 13.3337 8H14.667C14.667 9.06087 14.2456 10.0783 13.4954 10.8284C12.7453 11.5786 11.7279 12 10.667 12C9.60613 12 8.58871 11.5786 7.83857 10.8284C7.08842 10.0783 6.66699 9.06087 6.66699 8V4.66667C6.66699 3.6058 7.08842 2.58839 7.83857 1.83824C8.58871 1.08809 9.60613 0.666667 10.667 0.666667C11.7279 0.666667 12.7453 1.08809 13.4954 1.83824C14.2456 2.58839 14.667 3.6058 14.667 4.66667Z" fill="white"/>
</svg>
