<svg width="16" height="16" viewBox="0 0 16 16" fill="none" xmlns="http://www.w3.org/2000/svg">
<g clip-path="url(#clip0_204_1646)">
<path d="M2.99967 8.00002C3.92015 8.00002 4.66634 7.25383 4.66634 6.33335C4.66634 5.41288 3.92015 4.66669 2.99967 4.66669C2.0792 4.66669 1.33301 5.41288 1.33301 6.33335C1.33301 7.25383 2.0792 8.00002 2.99967 8.00002Z" fill="white"/>
<path d="M5.99967 5.33333C6.92015 5.33333 7.66634 4.58714 7.66634 3.66667C7.66634 2.74619 6.92015 2 5.99967 2C5.0792 2 4.33301 2.74619 4.33301 3.66667C4.33301 4.58714 5.0792 5.33333 5.99967 5.33333Z" fill="white"/>
<path d="M9.99967 5.33333C10.9201 5.33333 11.6663 4.58714 11.6663 3.66667C11.6663 2.74619 10.9201 2 9.99967 2C9.0792 2 8.33301 2.74619 8.33301 3.66667C8.33301 4.58714 9.0792 5.33333 9.99967 5.33333Z" fill="white"/>
<path d="M12.9997 8.00002C13.9201 8.00002 14.6663 7.25383 14.6663 6.33335C14.6663 5.41288 13.9201 4.66669 12.9997 4.66669C12.0792 4.66669 11.333 5.41288 11.333 6.33335C11.333 7.25383 12.0792 8.00002 12.9997 8.00002Z" fill="white"/>
<path d="M11.5598 9.90667C10.9798 9.22667 10.4931 8.64667 9.90644 7.96667C9.59977 7.60667 9.20644 7.24667 8.73977 7.08667C8.66644 7.06 8.5931 7.04 8.51977 7.02667C8.3531 7 8.1731 7 7.99977 7C7.82644 7 7.64644 7 7.4731 7.03333C7.39977 7.04667 7.32644 7.06667 7.2531 7.09333C6.78644 7.25333 6.39977 7.61333 6.08644 7.97333C5.50644 8.65333 5.01977 9.23333 4.4331 9.91333C3.55977 10.7867 2.48644 11.7533 2.68644 13.1067C2.87977 13.7867 3.36644 14.46 4.23977 14.6533C4.72644 14.7533 6.27977 14.36 7.9331 14.36H8.0531C9.70644 14.36 11.2598 14.7467 11.7464 14.6533C12.6198 14.46 13.1064 13.78 13.2998 13.1067C13.5064 11.7467 12.4331 10.78 11.5598 9.90667V9.90667Z" fill="white"/>
</g>
<defs>
<clipPath id="clip0_204_1646">
<rect width="16" height="16" fill="white"/>
</clipPath>
</defs>
</svg>
