<svg width="14" height="10" viewBox="0 0 14 10" fill="none" xmlns="http://www.w3.org/2000/svg">
<path d="M8.16673 5.46665C7.70007 5.46665 7.30562 5.30554 6.9834 4.98331C6.66118 4.66109 6.50006 4.26665 6.50006 3.79998C6.50006 3.34442 6.66118 2.95287 6.9834 2.62531C7.30562 2.29731 7.70007 2.13331 8.16673 2.13331C8.6334 2.13331 9.02784 2.29731 9.35007 2.62531C9.67229 2.95287 9.8334 3.34442 9.8334 3.79998C9.8334 4.26665 9.67229 4.66109 9.35007 4.98331C9.02784 5.30554 8.6334 5.46665 8.16673 5.46665ZM3.76673 7.53331C3.4334 7.53331 3.15007 7.41665 2.91673 7.18331C2.6834 6.94998 2.56673 6.66665 2.56673 6.33331V1.28331C2.56673 0.94998 2.6834 0.666646 2.91673 0.433313C3.15007 0.19998 3.4334 0.083313 3.76673 0.083313H12.5667C12.9001 0.083313 13.1834 0.19998 13.4167 0.433313C13.6501 0.666646 13.7667 0.94998 13.7667 1.28331V6.33331C13.7667 6.66665 13.6501 6.94998 13.4167 7.18331C13.1834 7.41665 12.9001 7.53331 12.5667 7.53331H3.76673ZM4.76673 6.53331H11.5667C11.5667 6.19998 11.6834 5.91665 11.9167 5.68331C12.1501 5.44998 12.4334 5.33331 12.7667 5.33331V2.28331C12.4334 2.28331 12.1501 2.16376 11.9167 1.92465C11.6834 1.68598 11.5667 1.40554 11.5667 1.08331H4.76673C4.76673 1.41665 4.65007 1.69998 4.41673 1.93331C4.1834 2.16665 3.90007 2.28331 3.56673 2.28331V5.33331C3.90007 5.33331 4.1834 5.44998 4.41673 5.68331C4.65007 5.91665 4.76673 6.19998 4.76673 6.53331ZM11.7834 9.86665H1.4334C1.10007 9.86665 0.816732 9.74998 0.583398 9.51665C0.350065 9.28331 0.233398 8.99998 0.233398 8.66665V2.06665H1.2334V8.66665C1.2334 8.7222 1.25562 8.76931 1.30007 8.80798C1.34451 8.84709 1.38895 8.86665 1.4334 8.86665H11.7834V9.86665ZM3.76673 6.53331H3.56673V1.08331H3.76673C3.71118 1.08331 3.66407 1.10287 3.6254 1.14198C3.58629 1.18065 3.56673 1.22776 3.56673 1.28331V6.33331C3.56673 6.38887 3.58629 6.43598 3.6254 6.47465C3.66407 6.51376 3.71118 6.53331 3.76673 6.53331Z" fill="white"/>
</svg>
