<svg width="14" height="14" viewBox="0 0 14 14" fill="none" xmlns="http://www.w3.org/2000/svg">
<path d="M3.66634 4.99998C3.29967 4.99998 2.9859 4.86931 2.72501 4.60798C2.46367 4.34709 2.33301 4.03331 2.33301 3.66665C2.33301 3.29998 2.46367 2.9862 2.72501 2.72531C2.9859 2.46398 3.29967 2.33331 3.66634 2.33331C4.03301 2.33331 4.34679 2.46398 4.60767 2.72531C4.86901 2.9862 4.99967 3.29998 4.99967 3.66665C4.99967 4.03331 4.86901 4.34709 4.60767 4.60798C4.34679 4.86931 4.03301 4.99998 3.66634 4.99998ZM2.33301 13.6666C2.14412 13.6666 1.98567 13.6026 1.85767 13.4746C1.73012 13.3471 1.66634 13.1889 1.66634 13C1.29967 13 0.985897 12.8695 0.725008 12.6086C0.463675 12.3473 0.333008 12.0333 0.333008 11.6666V7.66665H2.33301V7.16665C2.33301 6.74442 2.47745 6.38887 2.76634 6.09998C3.05523 5.81109 3.41079 5.66665 3.83301 5.66665C4.05523 5.66665 4.26079 5.71109 4.44967 5.79998C4.63856 5.88887 4.81079 6.01109 4.96634 6.16665L5.89967 7.19998C5.98856 7.28887 6.07479 7.3722 6.15834 7.44998C6.24145 7.52776 6.33301 7.59998 6.43301 7.66665H10.9997V2.23331C10.9997 2.07776 10.9441 1.94442 10.833 1.83331C10.7219 1.7222 10.5886 1.66665 10.433 1.66665C10.3663 1.66665 10.3026 1.68042 10.2417 1.70798C10.1803 1.73598 10.1219 1.77776 10.0663 1.83331L9.23301 2.66665C9.28856 2.85554 9.29967 3.04176 9.26634 3.22531C9.23301 3.40842 9.16634 3.57776 9.06634 3.73331L7.23301 1.86665C7.38856 1.76665 7.55523 1.70265 7.73301 1.67465C7.91079 1.64709 8.08856 1.66665 8.26634 1.73331L9.09967 0.89998C9.27745 0.722202 9.48012 0.583313 9.70767 0.483313C9.93567 0.383313 10.1775 0.333313 10.433 0.333313C10.9663 0.333313 11.4163 0.516646 11.783 0.883313C12.1497 1.24998 12.333 1.69998 12.333 2.23331V7.66665H13.6663V11.6666C13.6663 12.0333 13.5359 12.3473 13.275 12.6086C13.0137 12.8695 12.6997 13 12.333 13C12.333 13.1889 12.269 13.3471 12.141 13.4746C12.0135 13.6026 11.8552 13.6666 11.6663 13.6666H2.33301Z" fill="white"/>
</svg>
