<svg width="15" height="15" viewBox="0 0 15 15" fill="none" xmlns="http://www.w3.org/2000/svg">
<path d="M2.66699 14.3333C2.11144 14.3333 1.63921 14.1389 1.25033 13.75C0.861437 13.3611 0.666992 12.8889 0.666992 12.3333V8.31665C0.666992 8.03887 0.722548 7.77487 0.833659 7.52465C0.94477 7.27487 1.10033 7.05554 1.30033 6.86665L6.08366 2.33331L6.81699 3.09998C6.9281 3.2222 6.98921 3.3582 7.00033 3.50798C7.01144 3.6582 6.9781 3.79998 6.90033 3.93331L5.91699 5.66665H12.5503C12.7725 5.66665 12.9588 5.74998 13.109 5.91665C13.2588 6.08331 13.3337 6.27776 13.3337 6.49998C13.3337 6.73331 13.2532 6.93042 13.0923 7.09131C12.931 7.25265 12.7337 7.33331 12.5003 7.33331H8.00033V7.99998H13.8337C14.067 7.99998 14.2643 8.08065 14.4257 8.24198C14.5865 8.40287 14.667 8.59998 14.667 8.83331C14.667 9.06665 14.5865 9.26376 14.4257 9.42465C14.2643 9.58598 14.067 9.66665 13.8337 9.66665H8.00033V10.3333H13.167C13.4003 10.3333 13.5977 10.414 13.759 10.5753C13.9199 10.7362 14.0003 10.9333 14.0003 11.1666C14.0003 11.4 13.9199 11.5971 13.759 11.758C13.5977 11.9193 13.4003 12 13.167 12H8.00033V12.6666H11.8337C12.067 12.6666 12.2643 12.7473 12.4257 12.9086C12.5865 13.0695 12.667 13.2666 12.667 13.5C12.667 13.7333 12.5865 13.9304 12.4257 14.0913C12.2643 14.2526 12.067 14.3333 11.8337 14.3333H2.66699ZM9.98366 4.99998L10.067 4.59998C10.1225 4.33331 10.1032 4.06665 10.009 3.79998C9.91433 3.53331 9.76699 3.29998 9.56699 3.09998C9.23366 2.75554 8.9921 2.36931 8.84233 1.94131C8.6921 1.51376 8.64477 1.0722 8.70033 0.616646L8.73366 0.333313H10.0003L9.93366 0.733313C9.88921 0.99998 9.90321 1.26109 9.97566 1.51665C10.0477 1.7722 10.1837 1.99998 10.3837 2.19998C10.717 2.54442 10.967 2.93598 11.1337 3.37465C11.3003 3.81376 11.3559 4.26109 11.3003 4.71665L11.267 4.99998H9.98366ZM12.6503 4.99998L12.7337 4.59998C12.7892 4.33331 12.7699 4.06665 12.6757 3.79998C12.581 3.53331 12.4337 3.29998 12.2337 3.09998C11.9003 2.75554 11.6588 2.36931 11.509 1.94131C11.3588 1.51376 11.3114 1.0722 11.367 0.616646L11.4003 0.333313H12.667L12.6003 0.733313C12.5559 0.99998 12.5697 1.26109 12.6417 1.51665C12.7141 1.7722 12.8503 1.99998 13.0503 2.19998C13.3837 2.54442 13.6337 2.93598 13.8003 3.37465C13.967 3.81376 14.0225 4.26109 13.967 4.71665L13.9337 4.99998H12.6503Z" fill="white"/>
</svg>
