<svg width="16" height="12" viewBox="0 0 16 12" fill="none" xmlns="http://www.w3.org/2000/svg">
<path d="M0.666992 12V4H2.00033V5.33333H3.33366V0H4.66699V1.33333H6.00033V0H7.33366V1.33333H8.66699V0H10.0003V1.33333H11.3337V0H12.667V5.33333H14.0003V4H15.3337V12H9.33366V10C9.33366 9.63333 9.20321 9.31933 8.94233 9.058C8.68099 8.79711 8.36699 8.66667 8.00033 8.66667C7.63366 8.66667 7.31988 8.79711 7.05899 9.058C6.79766 9.31933 6.66699 9.63333 6.66699 10V12H0.666992ZM6.00033 6H7.33366V4H6.00033V6ZM8.66699 6H10.0003V4H8.66699V6Z" fill="white"/>
</svg>
