<svg width="13" height="13" viewBox="0 0 13 13" fill="none" xmlns="http://www.w3.org/2000/svg">
<path d="M0.814634 0.538678L5.29263 5.01668L3.4073 6.90268L0.813967 4.30934C0.314044 3.80927 0.0332031 3.13112 0.0332031 2.42401C0.0332031 1.71691 0.314044 1.03875 0.813967 0.538678H0.814634ZM7.51197 6.09734L6.94263 6.66668L11.6566 11.3807L10.714 12.3233L5.99997 7.61001L1.28597 12.3233L0.3433 11.3807L6.5693 5.15468C6.1773 4.18334 6.58263 2.78468 7.6493 1.71668C8.9513 0.415344 10.7453 0.0986778 11.6566 1.01001C12.568 1.92134 12.2513 3.71534 10.95 5.01668C9.88197 6.08468 8.4833 6.49001 7.51197 6.09734Z" fill="white"/>
</svg>
