<svg width="16" height="16" viewBox="0 0 16 16" fill="none" xmlns="http://www.w3.org/2000/svg">
<path fill-rule="evenodd" clip-rule="evenodd" d="M14.6663 13.297C15.0573 13.687 15.0573 14.321 14.6663 14.711C14.2763 15.101 13.6433 15.101 13.2523 14.711L11.1013 12.559C10.7113 12.169 10.7113 11.535 11.1013 11.145C11.4913 10.755 12.1253 10.755 12.5153 11.145L14.6663 13.297ZM5.5493 9.02399L13.2813 1.29099C13.4763 1.09599 13.7933 1.09599 13.9883 1.29099C15.3543 2.65699 15.3543 4.87499 13.9883 6.24099L8.3773 11.852C7.9873 12.243 7.3533 12.243 6.9633 11.852L6.2563 11.145L2.6973 14.704C2.3073 15.094 1.6733 15.094 1.2833 14.704C0.893305 14.314 0.893305 13.68 1.2833 13.29L5.5493 9.02399ZM5.3753 3.54599L3.8333 2.00399C3.6023 1.77399 3.6023 1.39999 3.8333 1.16899C4.0633 0.93899 4.4373 0.93899 4.6683 1.16899L5.5483 2.04999L5.5493 2.04899L6.5363 3.03599C7.5113 4.01199 7.5113 5.59599 6.5363 6.57199C5.5603 7.54799 3.9763 7.54799 3.0003 6.57199L2.0133 5.58499L1.1673 4.73799C0.927305 4.49899 0.927305 4.10999 1.1673 3.87099C1.4063 3.63199 1.7953 3.63199 2.0343 3.87099L3.5453 5.38199C3.6823 5.51899 3.9053 5.51899 4.0423 5.38199C4.1693 5.25399 4.1783 5.05199 4.0673 4.91499L2.1053 2.95299C1.8753 2.72199 1.8753 2.34799 2.1053 2.11699C2.3363 1.88699 2.7103 1.88699 2.9403 2.11699L4.8723 4.04899C5.0113 4.18799 5.2363 4.18799 5.3753 4.04899C5.5133 3.90999 5.5133 3.68499 5.3753 3.54599Z" fill="white"/>
</svg>
