<svg width="14" height="13" viewBox="0 0 14 13" fill="none" xmlns="http://www.w3.org/2000/svg">
<path d="M3.66634 6.33331C3.27238 6.33331 2.88227 6.25572 2.51829 6.10495C2.15431 5.95419 1.8236 5.73321 1.54502 5.45463C1.26644 5.17606 1.04547 4.84534 0.894702 4.48136C0.743938 4.11739 0.666341 3.72728 0.666341 3.33331C0.666341 2.93935 0.743938 2.54924 0.894702 2.18526C1.04547 1.82129 1.26644 1.49057 1.54502 1.21199C1.8236 0.933417 2.15431 0.712439 2.51829 0.561674C2.88227 0.41091 3.27238 0.333313 3.66634 0.333313C4.46199 0.333313 5.22505 0.649383 5.78766 1.21199C6.35027 1.7746 6.66634 2.53766 6.66634 3.33331C6.66634 4.12896 6.35027 4.89202 5.78766 5.45463C5.22505 6.01724 4.46199 6.33331 3.66634 6.33331ZM10.6663 8.99998C9.9591 8.99998 9.28082 8.71903 8.78072 8.21893C8.28063 7.71883 7.99967 7.04056 7.99967 6.33331C7.99967 5.62607 8.28063 4.94779 8.78072 4.44769C9.28082 3.9476 9.9591 3.66665 10.6663 3.66665C11.3736 3.66665 12.0519 3.9476 12.552 4.44769C13.0521 4.94779 13.333 5.62607 13.333 6.33331C13.333 7.04056 13.0521 7.71883 12.552 8.21893C12.0519 8.71903 11.3736 8.99998 10.6663 8.99998ZM10.6663 9.66665C11.462 9.66665 12.2251 9.98272 12.7877 10.5453C13.3503 11.1079 13.6663 11.871 13.6663 12.6666V13H7.66634V12.6666C7.66634 11.871 7.98241 11.1079 8.54502 10.5453C9.10763 9.98272 9.87069 9.66665 10.6663 9.66665ZM3.66634 6.99998C4.10408 6.99998 4.53753 7.0862 4.94195 7.25371C5.34637 7.42123 5.71383 7.66676 6.02336 7.97629C6.33289 8.28582 6.57842 8.65328 6.74594 9.0577C6.91346 9.46212 6.99967 9.89557 6.99967 10.3333V13H0.333008V10.3333C0.333008 9.44926 0.684197 8.60141 1.30932 7.97629C1.93444 7.35117 2.78229 6.99998 3.66634 6.99998Z" fill="white"/>
</svg>
