<svg width="14" height="14" viewBox="0 0 14 14" fill="none" xmlns="http://www.w3.org/2000/svg">
<path d="M12.713 8.90665L13.6663 7.95331L12.713 6.99998L10.333 9.37998L4.61967 3.66665L6.99967 1.28665L6.04634 0.333313L5.09301 1.28665L4.13967 0.333313L2.71301 1.75998L1.75967 0.806646L0.806341 1.75998L1.75967 2.71331L0.333008 4.13998L1.28634 5.09331L0.333008 6.04665L1.28634 6.99998L3.66634 4.61998L9.37967 10.3333L6.99967 12.7133L7.95301 13.6666L8.90634 12.7133L9.85967 13.6666L11.2863 12.24L12.2397 13.1933L13.193 12.24L12.2397 11.2866L13.6663 9.85998L12.713 8.90665Z" fill="white"/>
</svg>
