<svg width="12" height="14" viewBox="0 0 12 14" fill="none" xmlns="http://www.w3.org/2000/svg">
<path d="M4.11366 10.22C5.15366 11.26 6.84699 11.26 7.88699 10.22C8.92699 9.17998 8.92699 7.48665 7.88699 6.44665L4.11366 10.22ZM10.0003 0.33998L2.00033 0.333313C1.26033 0.333313 0.666992 0.926646 0.666992 1.66665V12.3333C0.666992 13.0733 1.26033 13.6666 2.00033 13.6666H10.0003C10.7403 13.6666 11.3337 13.0733 11.3337 12.3333V1.66665C11.3337 0.926646 10.7403 0.33998 10.0003 0.33998ZM4.66699 1.66665C5.03366 1.66665 5.33366 1.96665 5.33366 2.33331C5.33366 2.69998 5.03366 2.99998 4.66699 2.99998C4.30033 2.99998 4.00033 2.69998 4.00033 2.33331C4.00033 1.96665 4.30033 1.66665 4.66699 1.66665ZM2.66699 1.66665C3.03366 1.66665 3.33366 1.96665 3.33366 2.33331C3.33366 2.69998 3.03366 2.99998 2.66699 2.99998C2.30033 2.99998 2.00033 2.69998 2.00033 2.33331C2.00033 1.96665 2.30033 1.66665 2.66699 1.66665ZM6.00033 12.3333C3.79366 12.3333 2.00033 10.54 2.00033 8.33331C2.00033 6.12665 3.79366 4.33331 6.00033 4.33331C8.20699 4.33331 10.0003 6.12665 10.0003 8.33331C10.0003 10.54 8.20699 12.3333 6.00033 12.3333Z" fill="white"/>
</svg>
