<svg width="22" height="20" viewBox="0 0 22 20" fill="none" xmlns="http://www.w3.org/2000/svg">
<path d="M2 20C1.45 20 0.979333 19.8043 0.588 19.413C0.196 19.021 0 18.55 0 18V6C0 5.45 0.196 4.97933 0.588 4.588C0.979333 4.196 1.45 4 2 4H5.15L6.4 2.65C6.58333 2.45 6.804 2.29167 7.062 2.175C7.32067 2.05833 7.59167 2 7.875 2H12C12.2833 2 12.521 2.09567 12.713 2.287C12.9043 2.479 13 2.71667 13 3V5C13 5.28333 13.096 5.521 13.288 5.713C13.4793 5.90433 13.7167 6 14 6H16V8C16 8.28333 16.096 8.52067 16.288 8.712C16.4793 8.904 16.7167 9 17 9H19C19.2833 9 19.5207 9.09567 19.712 9.287C19.904 9.479 20 9.71667 20 10V18C20 18.55 19.8043 19.021 19.413 19.413C19.021 19.8043 18.55 20 18 20H2ZM10 16.5C11.25 16.5 12.3127 16.0627 13.188 15.188C14.0627 14.3127 14.5 13.25 14.5 12C14.5 10.75 14.0627 9.68733 13.188 8.812C12.3127 7.93733 11.25 7.5 10 7.5C8.75 7.5 7.68733 7.93733 6.812 8.812C5.93733 9.68733 5.5 10.75 5.5 12C5.5 13.25 5.93733 14.3127 6.812 15.188C7.68733 16.0627 8.75 16.5 10 16.5ZM18 4H17C16.7167 4 16.4793 3.90433 16.288 3.713C16.096 3.521 16 3.28333 16 3C16 2.71667 16.096 2.479 16.288 2.287C16.4793 2.09567 16.7167 2 17 2H18V1C18 0.716667 18.096 0.479 18.288 0.287C18.4793 0.0956666 18.7167 0 19 0C19.2833 0 19.5207 0.0956666 19.712 0.287C19.904 0.479 20 0.716667 20 1V2H21C21.2833 2 21.5207 2.09567 21.712 2.287C21.904 2.479 22 2.71667 22 3C22 3.28333 21.904 3.521 21.712 3.713C21.5207 3.90433 21.2833 4 21 4H20V5C20 5.28333 19.904 5.521 19.712 5.713C19.5207 5.90433 19.2833 6 19 6C18.7167 6 18.4793 5.90433 18.288 5.713C18.096 5.521 18 5.28333 18 5V4Z" fill="white"/>
</svg>
