<svg width="28" height="31" viewBox="0 0 28 31" fill="none" xmlns="http://www.w3.org/2000/svg">
<path fill-rule="evenodd" clip-rule="evenodd" d="M5.56788 8.41598C6.37588 6.48398 7.81388 4.89798 9.67188 3.91798C9.94988 1.77598 11.7819 0.117981 14.0059 0.117981C16.2299 0.117981 18.0639 1.77598 18.3399 3.91798C20.1999 4.89798 21.6419 6.48398 22.4559 8.41598C22.4559 8.41598 23.4439 10.308 23.7259 13.47C23.8179 14.49 24.1899 16.016 24.7059 17.016C25.3459 18.256 26.8839 20.364 27.0719 22.652C27.1119 22.866 27.1319 23.082 27.1319 23.302C27.1319 23.908 26.9799 24.496 26.6939 25.054C26.6839 25.076 26.6739 25.098 26.6639 25.12C26.4959 25.496 26.3399 25.726 26.1939 25.836C24.2579 28.348 19.5299 30.12 14.0059 30.12C8.46588 30.12 3.72788 28.338 1.80188 25.816C1.67188 25.704 1.53188 25.496 1.38188 25.174C1.05588 24.58 0.879883 23.952 0.879883 23.302C0.879883 23.056 0.907883 22.814 0.957883 22.576C1.17388 20.316 2.68388 18.242 3.31588 17.016C3.83188 16.016 4.20388 14.49 4.29588 13.47C4.57988 10.308 5.56788 8.41598 5.56788 8.41598ZM14.0059 27.124C8.87188 27.124 4.32588 25.382 4.32588 23.574C4.32588 22.322 6.71188 21.234 9.64988 20.684C9.84388 22.914 11.7199 24.666 14.0059 24.666C16.2939 24.666 18.1679 22.914 18.3619 20.684C21.2999 21.234 23.6879 22.322 23.6879 23.574C23.6879 25.382 19.1419 27.124 14.0059 27.124Z" fill="white"/>
</svg>
