<svg width="19" height="19" viewBox="0 0 19 19" fill="none" xmlns="http://www.w3.org/2000/svg">
<path fill-rule="evenodd" clip-rule="evenodd" d="M9.28687 6.99487L15.7969 0.484875C16.4434 -0.161625 17.4934 -0.161625 18.1399 0.484875C18.7864 1.13137 18.7864 2.18138 18.1399 2.82787L11.6299 9.33787L18.1399 15.8479C18.7729 16.4794 18.7729 17.5069 18.1399 18.1399C17.5069 18.7729 16.4794 18.7729 15.8479 18.1399L9.33787 11.6299L2.82787 18.1399C2.18138 18.7864 1.13137 18.7864 0.484875 18.1399C-0.161625 17.4934 -0.161625 16.4434 0.484875 15.7969L6.99487 9.28687L0.484875 2.77688C-0.148125 2.14538 -0.148125 1.11787 0.484875 0.484875C1.11787 -0.148125 2.14538 -0.148125 2.77688 0.484875L9.28687 6.99487Z" fill="white"/>
</svg>
