<svg width="32" height="26" viewBox="0 0 32 26" fill="none" xmlns="http://www.w3.org/2000/svg">
<path fill-rule="evenodd" clip-rule="evenodd" d="M15.978 3.812L17.006 2.786C18.556 1.234 21.022 0 23.218 0C25.412 0 27.516 0.872 29.068 2.424C29.222 2.578 29.378 2.734 29.534 2.89C31.086 4.44 31.956 6.546 31.956 8.74C31.956 10.934 31.086 13.038 29.534 14.59C26.2239 17.8981 24.2388 19.8852 20.544 23.58C18.022 26.102 13.934 26.102 11.412 23.58C8.41533 20.5833 5.41867 17.5867 2.422 14.59C0.87 13.038 0 10.934 0 8.74C0 6.546 0.87 4.44 2.422 2.89C2.578 2.734 2.734 2.578 2.888 2.424C4.44 0.872 6.544 0 8.738 0C10.934 0 13.398 1.232 14.95 2.784L15.978 3.812Z" fill="#2C2D2E"/>
</svg>
