<svg width="22" height="16" viewBox="0 0 22 16" fill="none" xmlns="http://www.w3.org/2000/svg">
<path d="M12.7496 8.7C12.0496 8.7 11.4579 8.45833 10.9746 7.975C10.4913 7.49167 10.2496 6.9 10.2496 6.2C10.2496 5.51667 10.4913 4.92933 10.9746 4.438C11.4579 3.946 12.0496 3.7 12.7496 3.7C13.4496 3.7 14.0413 3.946 14.5246 4.438C15.0079 4.92933 15.2496 5.51667 15.2496 6.2C15.2496 6.9 15.0079 7.49167 14.5246 7.975C14.0413 8.45833 13.4496 8.7 12.7496 8.7ZM6.14961 11.8C5.64961 11.8 5.22461 11.625 4.87461 11.275C4.52461 10.925 4.34961 10.5 4.34961 10V2.425C4.34961 1.925 4.52461 1.5 4.87461 1.15C5.22461 0.8 5.64961 0.625 6.14961 0.625H19.3496C19.8496 0.625 20.2746 0.8 20.6246 1.15C20.9746 1.5 21.1496 1.925 21.1496 2.425V10C21.1496 10.5 20.9746 10.925 20.6246 11.275C20.2746 11.625 19.8496 11.8 19.3496 11.8H6.14961ZM7.64961 10.3H17.8496C17.8496 9.8 18.0246 9.375 18.3746 9.025C18.7246 8.675 19.1496 8.5 19.6496 8.5V3.925C19.1496 3.925 18.7246 3.74567 18.3746 3.387C18.0246 3.029 17.8496 2.60833 17.8496 2.125H7.64961C7.64961 2.625 7.47461 3.05 7.12461 3.4C6.77461 3.75 6.34961 3.925 5.84961 3.925V8.5C6.34961 8.5 6.77461 8.675 7.12461 9.025C7.47461 9.375 7.64961 9.8 7.64961 10.3ZM18.1746 15.3H2.64961C2.14961 15.3 1.72461 15.125 1.37461 14.775C1.02461 14.425 0.849609 14 0.849609 13.5V3.6H2.34961V13.5C2.34961 13.5833 2.38294 13.654 2.44961 13.712C2.51628 13.7707 2.58294 13.8 2.64961 13.8H18.1746V15.3ZM6.14961 10.3H5.84961V2.125H6.14961C6.06628 2.125 5.99561 2.15433 5.93761 2.213C5.87894 2.271 5.84961 2.34167 5.84961 2.425V10C5.84961 10.0833 5.87894 10.154 5.93761 10.212C5.99561 10.2707 6.06628 10.3 6.14961 10.3Z" fill="#2C2D2E" fill-opacity="0.6"/>
</svg>
