<svg width="20" height="19" viewBox="0 0 20 19" fill="none" xmlns="http://www.w3.org/2000/svg">
<path d="M0 19.0001V17.4001C0.6 17.3501 1.07917 17.1751 1.4375 16.8751C1.79583 16.5751 2.35833 16.4251 3.125 16.4251C3.89167 16.4251 4.51667 16.6043 5 16.9626C5.48333 17.3209 6.04167 17.5001 6.675 17.5001C7.30833 17.5001 7.82917 17.3209 8.2375 16.9626C8.64583 16.6043 9.23333 16.4251 10 16.4251C10.7667 16.4251 11.3917 16.6043 11.875 16.9626C12.3583 17.3209 12.9167 17.5001 13.55 17.5001C14.1833 17.5001 14.7083 17.3209 15.125 16.9626C15.5417 16.6043 16.1333 16.4251 16.9 16.4251C17.6667 16.4251 18.225 16.5751 18.575 16.8751C18.925 17.1751 19.4 17.3501 20 17.4001V19.0001C19.4167 18.9501 18.9125 18.7626 18.4875 18.4376C18.0625 18.1126 17.5333 17.9501 16.9 17.9501C16.2667 17.9501 15.725 18.1251 15.275 18.4751C14.825 18.8251 14.25 19.0001 13.55 19.0001C12.85 19.0001 12.2417 18.8251 11.725 18.4751C11.2083 18.1251 10.6333 17.9501 10 17.9501C9.36667 17.9501 8.8125 18.1251 8.3375 18.4751C7.8625 18.8251 7.275 19.0001 6.575 19.0001C5.875 19.0001 5.28333 18.8251 4.8 18.4751C4.31667 18.1251 3.75833 17.9501 3.125 17.9501C2.49167 17.9501 1.95833 18.1126 1.525 18.4376C1.09167 18.7626 0.583333 18.9501 0 19.0001ZM0 14.3001V12.8001C0.6 12.7501 1.07917 12.5793 1.4375 12.2876C1.79583 11.9959 2.35833 11.8501 3.125 11.8501C3.89167 11.8501 4.5 12.0084 4.95 12.3251C5.4 12.6418 5.94167 12.8001 6.575 12.8001C7.20833 12.8001 7.74583 12.6418 8.1875 12.3251C8.62917 12.0084 9.23333 11.8501 10 11.8501C10.7667 11.8501 11.375 12.0084 11.825 12.3251C12.275 12.6418 12.8167 12.8001 13.45 12.8001C14.0833 12.8001 14.625 12.6418 15.075 12.3251C15.525 12.0084 16.1333 11.8501 16.9 11.8501C17.6667 11.8501 18.225 11.9959 18.575 12.2876C18.925 12.5793 19.4 12.7501 20 12.8001V14.3001C19.4167 14.2501 18.9125 14.0626 18.4875 13.7376C18.0625 13.4126 17.5333 13.2501 16.9 13.2501C16.2667 13.2501 15.725 13.4251 15.275 13.7751C14.825 14.1251 14.25 14.3001 13.55 14.3001C12.85 14.3001 12.2417 14.1251 11.725 13.7751C11.2083 13.4251 10.6333 13.2501 10 13.2501C9.36667 13.2501 8.82917 13.4251 8.3875 13.7751C7.94583 14.1251 7.375 14.3001 6.675 14.3001C5.975 14.3001 5.36667 14.1251 4.85 13.7751C4.33333 13.4251 3.75833 13.2501 3.125 13.2501C2.49167 13.2501 1.95833 13.4126 1.525 13.7376C1.09167 14.0626 0.583333 14.2501 0 14.3001ZM5.2 9.1001L8.575 5.7251L7.225 4.3751C6.65833 3.80843 6.08333 3.42926 5.5 3.2376C4.91667 3.04593 4.175 2.9501 3.275 2.9501V0.975098C4.475 0.975098 5.4625 1.1251 6.2375 1.4251C7.0125 1.7251 7.76667 2.24176 8.5 2.9751L14.825 9.3001C14.6417 9.4501 14.4292 9.55843 14.1875 9.6251C13.9458 9.69176 13.7 9.7251 13.45 9.7251C12.8167 9.7251 12.2708 9.5501 11.8125 9.2001C11.3542 8.8501 10.75 8.6751 10 8.6751C9.25 8.6751 8.65 8.8501 8.2 9.2001C7.75 9.5501 7.20833 9.7251 6.575 9.7251C6.275 9.7251 6.00417 9.66677 5.7625 9.5501C5.52083 9.43343 5.33333 9.28343 5.2 9.1001ZM14.7 1.0751C15.3667 1.0751 15.9292 1.30426 16.3875 1.7626C16.8458 2.22093 17.075 2.78343 17.075 3.4501C17.075 4.11676 16.8458 4.67926 16.3875 5.1376C15.9292 5.59593 15.3667 5.8251 14.7 5.8251C14.0333 5.8251 13.4708 5.59593 13.0125 5.1376C12.5542 4.67926 12.325 4.11676 12.325 3.4501C12.325 2.78343 12.5542 2.22093 13.0125 1.7626C13.4708 1.30426 14.0333 1.0751 14.7 1.0751Z" fill="#2C2D2E" fill-opacity="0.6"/>
</svg>
