<svg width="20" height="19" viewBox="0 0 20 19" fill="none" xmlns="http://www.w3.org/2000/svg">
<path d="M5 9C4.40905 9 3.82389 8.8836 3.27792 8.65746C2.73196 8.43131 2.23588 8.09984 1.81802 7.68198C1.40016 7.26412 1.06869 6.76804 0.842542 6.22208C0.616396 5.67611 0.5 5.09095 0.5 4.5C0.5 3.90905 0.616396 3.32389 0.842542 2.77792C1.06869 2.23196 1.40016 1.73588 1.81802 1.31802C2.23588 0.900156 2.73196 0.568688 3.27792 0.342542C3.82389 0.116396 4.40905 -8.80582e-09 5 0C6.19347 1.77842e-08 7.33807 0.474106 8.18198 1.31802C9.02589 2.16193 9.5 3.30653 9.5 4.5C9.5 5.69347 9.02589 6.83807 8.18198 7.68198C7.33807 8.52589 6.19347 9 5 9ZM15.5 13C14.4391 13 13.4217 12.5786 12.6716 11.8284C11.9214 11.0783 11.5 10.0609 11.5 9C11.5 7.93913 11.9214 6.92172 12.6716 6.17157C13.4217 5.42143 14.4391 5 15.5 5C16.5609 5 17.5783 5.42143 18.3284 6.17157C19.0786 6.92172 19.5 7.93913 19.5 9C19.5 10.0609 19.0786 11.0783 18.3284 11.8284C17.5783 12.5786 16.5609 13 15.5 13ZM15.5 14C16.6935 14 17.8381 14.4741 18.682 15.318C19.5259 16.1619 20 17.3065 20 18.5V19H11V18.5C11 17.3065 11.4741 16.1619 12.318 15.318C13.1619 14.4741 14.3065 14 15.5 14ZM5 10C5.65661 10 6.30679 10.1293 6.91342 10.3806C7.52004 10.6319 8.07124 11.0002 8.53553 11.4645C8.99983 11.9288 9.36812 12.48 9.6194 13.0866C9.87067 13.6932 10 14.3434 10 15V19H0V15C0 13.6739 0.526784 12.4021 1.46447 11.4645C2.40215 10.5268 3.67392 10 5 10Z" fill="#2C2D2E" fill-opacity="0.6"/>
</svg>
