<svg width="16" height="20" viewBox="0 0 16 20" fill="none" xmlns="http://www.w3.org/2000/svg">
<path d="M5.17 14.83C6.73 16.39 9.27 16.39 10.83 14.83C12.39 13.27 12.39 10.73 10.83 9.17L5.17 14.83ZM14 0.00999999L2 0C0.89 0 0 0.89 0 2V18C0 19.11 0.89 20 2 20H14C15.11 20 16 19.11 16 18V2C16 0.89 15.11 0.00999999 14 0.00999999ZM6 2C6.55 2 7 2.45 7 3C7 3.55 6.55 4 6 4C5.45 4 5 3.55 5 3C5 2.45 5.45 2 6 2ZM3 2C3.55 2 4 2.45 4 3C4 3.55 3.55 4 3 4C2.45 4 2 3.55 2 3C2 2.45 2.45 2 3 2ZM8 18C4.69 18 2 15.31 2 12C2 8.69 4.69 6 8 6C11.31 6 14 8.69 14 12C14 15.31 11.31 18 8 18Z" fill="#2C2D2E" fill-opacity="0.6"/>
</svg>
