<svg width="20" height="16" viewBox="0 0 20 16" fill="none" xmlns="http://www.w3.org/2000/svg">
<path d="M0.25 15.625V14.175C0.7 14.1416 1.09167 14.05 1.425 13.9C1.75833 13.75 2.09167 13.5916 2.425 13.425C2.75833 13.2583 3.125 13.1126 3.525 12.988C3.925 12.8626 4.41667 12.8 5 12.8C5.6 12.8 6.1 12.871 6.5 13.013C6.9 13.1543 7.279 13.3126 7.637 13.488C7.99567 13.6626 8.35833 13.825 8.725 13.975C9.09167 14.125 9.51667 14.2 10 14.2C10.4833 14.2 10.9083 14.125 11.275 13.975C11.6417 13.825 12.0043 13.6626 12.363 13.488C12.721 13.3126 13.104 13.1543 13.512 13.013C13.9207 12.871 14.4167 12.8 15 12.8C15.6 12.8 16.096 12.8626 16.488 12.988C16.8793 13.1126 17.2417 13.2583 17.575 13.425C17.9083 13.5916 18.2417 13.75 18.575 13.9C18.9083 14.05 19.3 14.1416 19.75 14.175V15.625C19.2 15.6083 18.7333 15.525 18.35 15.375C17.9667 15.225 17.6043 15.0666 17.263 14.9C16.921 14.7333 16.5793 14.5833 16.238 14.45C15.896 14.3166 15.4833 14.25 15 14.25C14.5333 14.25 14.121 14.3206 13.763 14.462C13.4043 14.604 13.05 14.7626 12.7 14.938C12.35 15.1126 11.9627 15.275 11.538 15.425C11.1127 15.575 10.6 15.65 10 15.65C9.4 15.65 8.88767 15.575 8.463 15.425C8.03767 15.275 7.65 15.1126 7.3 14.938C6.95 14.7626 6.6 14.604 6.25 14.462C5.9 14.3206 5.48333 14.25 5 14.25C4.53333 14.25 4.125 14.3166 3.775 14.45C3.425 14.5833 3.07933 14.7333 2.738 14.9C2.396 15.0666 2.03333 15.225 1.65 15.375C1.26667 15.525 0.8 15.6083 0.25 15.625ZM0.25 11.475V10.025C0.7 10.0083 1.09167 9.92497 1.425 9.77497C1.75833 9.62498 2.09167 9.46664 2.425 9.29998C2.75833 9.13331 3.125 8.98331 3.525 8.84998C3.925 8.71664 4.41667 8.64997 5 8.64997C5.6 8.64997 6.1 8.72064 6.5 8.86198C6.9 9.00398 7.279 9.16231 7.637 9.33698C7.99567 9.51231 8.35833 9.67498 8.725 9.82498C9.09167 9.97498 9.51667 10.05 10 10.05C10.4833 10.05 10.9083 9.97498 11.275 9.82498C11.6417 9.67498 12.0043 9.51231 12.363 9.33698C12.721 9.16231 13.104 9.00398 13.512 8.86198C13.9207 8.72064 14.4167 8.64997 15 8.64997C15.6 8.64997 16.096 8.71664 16.488 8.84998C16.8793 8.98331 17.2417 9.13331 17.575 9.29998C17.9083 9.46664 18.2417 9.62498 18.575 9.77497C18.9083 9.92497 19.3 10.0083 19.75 10.025V11.475C19.2 11.4583 18.7333 11.375 18.35 11.225C17.9667 11.075 17.6043 10.9166 17.263 10.75C16.921 10.5833 16.5793 10.4333 16.238 10.3C15.896 10.1666 15.4833 10.1 15 10.1C14.5167 10.1 14.096 10.1706 13.738 10.312C13.3793 10.454 13.025 10.6123 12.675 10.787C12.325 10.9623 11.9417 11.125 11.525 11.275C11.1083 11.425 10.6 11.5 10 11.5C9.4 11.5 8.88767 11.425 8.463 11.275C8.03767 11.125 7.65 10.9623 7.3 10.787C6.95 10.6123 6.6 10.454 6.25 10.312C5.9 10.1706 5.48333 10.1 5 10.1C4.53333 10.1 4.125 10.1666 3.775 10.3C3.425 10.4333 3.07933 10.5833 2.738 10.75C2.396 10.9166 2.03333 11.075 1.65 11.225C1.26667 11.375 0.8 11.4583 0.25 11.475ZM0.25 7.32498V5.87498C0.7 5.85831 1.09167 5.77498 1.425 5.62498C1.75833 5.47498 2.09167 5.31664 2.425 5.14998C2.75833 4.98331 3.125 4.83331 3.525 4.69998C3.925 4.56664 4.41667 4.49998 5 4.49998C5.6 4.49998 6.1 4.57064 6.5 4.71198C6.9 4.85398 7.279 5.01264 7.637 5.18798C7.99567 5.36264 8.35833 5.52498 8.725 5.67498C9.09167 5.82498 9.51667 5.89998 10 5.89998C10.4833 5.89998 10.9083 5.82498 11.275 5.67498C11.6417 5.52498 12.0043 5.36264 12.363 5.18798C12.721 5.01264 13.104 4.85398 13.512 4.71198C13.9207 4.57064 14.4167 4.49998 15 4.49998C15.6 4.49998 16.096 4.56664 16.488 4.69998C16.8793 4.83331 17.2417 4.98331 17.575 5.14998C17.9083 5.31664 18.2417 5.47498 18.575 5.62498C18.9083 5.77498 19.3 5.85831 19.75 5.87498V7.32498C19.2 7.30831 18.7333 7.22498 18.35 7.07498C17.9667 6.92498 17.6043 6.76664 17.263 6.59998C16.921 6.43331 16.5793 6.28331 16.238 6.14998C15.896 6.01664 15.4833 5.94998 15 5.94998C14.5333 5.94998 14.121 6.02064 13.763 6.16198C13.4043 6.30398 13.05 6.46231 12.7 6.63698C12.35 6.81231 11.9627 6.97498 11.538 7.12498C11.1127 7.27498 10.6 7.34998 10 7.34998C9.4 7.34998 8.88767 7.27498 8.463 7.12498C8.03767 6.97498 7.65 6.81231 7.3 6.63698C6.95 6.46231 6.6 6.30398 6.25 6.16198C5.9 6.02064 5.48333 5.94998 5 5.94998C4.53333 5.94998 4.125 6.01664 3.775 6.14998C3.425 6.28331 3.07933 6.43331 2.738 6.59998C2.396 6.76664 2.03333 6.92498 1.65 7.07498C1.26667 7.22498 0.8 7.30831 0.25 7.32498ZM0.25 3.19998V1.74998C0.7 1.71664 1.09167 1.62498 1.425 1.47498C1.75833 1.32498 2.09167 1.16664 2.425 0.999976C2.75833 0.833309 3.125 0.683309 3.525 0.549976C3.925 0.416643 4.41667 0.349976 5 0.349976C5.6 0.349976 6.1 0.420642 6.5 0.561975C6.9 0.703975 7.279 0.862309 7.637 1.03698C7.99567 1.21231 8.35833 1.37498 8.725 1.52498C9.09167 1.67498 9.51667 1.74998 10 1.74998C10.4833 1.74998 10.9083 1.67498 11.275 1.52498C11.6417 1.37498 12.0043 1.21231 12.363 1.03698C12.721 0.862309 13.104 0.703975 13.512 0.561975C13.9207 0.420642 14.4167 0.349976 15 0.349976C15.6 0.349976 16.096 0.416643 16.488 0.549976C16.8793 0.683309 17.2417 0.833309 17.575 0.999976C17.9083 1.16664 18.2417 1.32498 18.575 1.47498C18.9083 1.62498 19.3 1.71664 19.75 1.74998V3.19998C19.2 3.18331 18.7333 3.09998 18.35 2.94998C17.9667 2.79998 17.6043 2.64164 17.263 2.47498C16.921 2.30831 16.5793 2.15398 16.238 2.01198C15.896 1.87064 15.4833 1.79998 15 1.79998C14.5333 1.79998 14.121 1.87064 13.763 2.01198C13.4043 2.15398 13.05 2.31231 12.7 2.48698C12.35 2.66231 11.9627 2.82498 11.538 2.97498C11.1127 3.12498 10.6 3.19998 10 3.19998C9.4 3.19998 8.88767 3.12498 8.463 2.97498C8.03767 2.82498 7.65 2.66231 7.3 2.48698C6.95 2.31231 6.6 2.15398 6.25 2.01198C5.9 1.87064 5.48333 1.79998 5 1.79998C4.53333 1.79998 4.125 1.87064 3.775 2.01198C3.425 2.15398 3.07933 2.30831 2.738 2.47498C2.396 2.64164 2.03333 2.79998 1.65 2.94998C1.26667 3.09998 0.8 3.18331 0.25 3.19998Z" fill="#2C2D2E" fill-opacity="0.6"/>
</svg>
