<svg width="24" height="18" viewBox="0 0 24 18" fill="none" xmlns="http://www.w3.org/2000/svg">
<path fill-rule="evenodd" clip-rule="evenodd" d="M12.0003 12C13.6563 12 15.0003 13.344 15.0003 15C15.0003 16.656 13.6563 18 12.0003 18C10.3443 18 9.00033 16.656 9.00033 15C9.00033 13.344 10.3443 12 12.0003 12ZM11.9613 9C11.9478 9 11.9358 9 11.9223 9C11.0493 9.0165 10.1898 9.2115 9.40083 9.591C8.66283 9.9465 7.99983 10.455 7.46433 11.0745C7.19133 11.3895 6.95283 11.7315 6.75033 12.0945C6.75033 12.0945 6.74433 12.0975 6.73833 12.1065C6.33183 12.768 5.26983 12.7365 4.65333 12.219C4.03683 11.703 3.92733 10.797 4.40133 10.1475C4.58133 9.9 4.68033 9.765 4.68033 9.765C4.80033 9.597 4.92633 9.4335 5.05683 9.276C5.83833 8.3295 6.81183 7.545 7.90383 6.9855C8.72433 6.5655 9.61083 6.273 10.5198 6.1215C10.9338 6.0525 11.3508 6.0165 11.7693 6.003C11.8458 6.0015 11.9238 6 12.0003 6H12.0588C12.1158 6.0015 12.1743 6.0015 12.2313 6.003C12.6498 6.0165 13.0668 6.0525 13.4808 6.1215C14.3898 6.273 15.2763 6.5655 16.0968 6.9855C17.1888 7.545 18.1623 8.3295 18.9438 9.276C19.0743 9.4335 19.2003 9.597 19.3203 9.765C19.3203 9.765 19.4193 9.9 19.5993 10.1475C20.0733 10.797 19.9638 11.703 19.3473 12.219C18.7308 12.7365 17.6688 12.768 17.2623 12.1065C17.2563 12.0975 17.2503 12.0945 17.2503 12.0945C17.0478 11.7315 16.8093 11.3895 16.5363 11.0745C16.0008 10.455 15.3378 9.9465 14.5998 9.591C13.8108 9.2115 12.9513 9.0165 12.0783 9C12.0528 9 12.0258 9 12.0003 9H11.9613ZM11.9223 3C11.8968 3 11.8713 3 11.8443 3.0015C11.2848 3.012 10.7268 3.054 10.1718 3.138C9.05283 3.309 7.95933 3.642 6.93333 4.1205C5.26983 4.8975 3.80133 6.06 2.65233 7.4835C2.65233 7.4835 2.65083 7.4835 2.64933 7.485C2.15433 8.103 1.20183 7.9995 0.631829 7.4775C0.0618292 6.9555 -0.0191708 6.0855 0.447329 5.469C0.570329 5.3055 0.637829 5.2155 0.637829 5.2155C2.02083 3.6135 3.73683 2.3025 5.66283 1.4025C6.94683 0.8025 8.31783 0.387 9.71883 0.1725C10.4103 0.0675 11.1078 0.015 11.8068 0.0015C11.9043 0 11.9523 0 12.0003 0H12.0783C12.1083 0 12.1458 0 12.1938 0.0015C12.8928 0.015 13.5903 0.0675 14.2818 0.1725C15.6828 0.387 17.0538 0.8025 18.3378 1.4025C20.2638 2.3025 21.9798 3.6135 23.3628 5.2155C23.3628 5.2155 23.4303 5.3055 23.5533 5.469C24.0198 6.0855 23.9388 6.9555 23.3688 7.4775C22.7988 7.9995 21.8463 8.103 21.3513 7.485C21.3498 7.4835 21.3483 7.4835 21.3483 7.4835C20.1993 6.06 18.7308 4.8975 17.0673 4.1205C16.0413 3.642 14.9478 3.309 13.8288 3.138C13.2738 3.054 12.7158 3.012 12.1563 3.0015C12.1038 3 12.0513 3 12.0003 3H11.9223Z" fill="#2C2D2E" fill-opacity="0.6"/>
</svg>
