<svg width="16" height="22" viewBox="0 0 16 22" fill="none" xmlns="http://www.w3.org/2000/svg">
<path d="M8.00034 22C6.49749 21.9999 5.02934 21.5483 3.78624 20.7037C2.54315 19.8592 1.58244 18.6606 1.02868 17.2635C0.474929 15.8664 0.353667 14.3352 0.680621 12.8683C1.00757 11.4015 1.76766 10.0667 2.86234 9.037C4.20434 7.774 7.50034 5.5 7.00034 0.5C13.0003 4.5 16.0003 8.5 10.0003 14.5C11.0003 14.5 12.5003 14.5 15.0003 12.03C15.2703 12.803 15.5003 13.634 15.5003 14.5C15.5003 16.4891 14.7102 18.3968 13.3036 19.8033C11.8971 21.2098 9.98946 22 8.00034 22Z" fill="#2C2D2E" fill-opacity="0.6"/>
</svg>
