<svg width="20" height="20" viewBox="0 0 20 20" fill="none" xmlns="http://www.w3.org/2000/svg">
<path d="M10 0C15.523 0 20 4.477 20 10C20 15.523 15.523 20 10 20C4.477 20 0 15.523 0 10C0 4.477 4.477 0 10 0ZM10 4C8.4087 4 6.88258 4.63214 5.75736 5.75736C4.63214 6.88258 4 8.4087 4 10C4 11.5913 4.63214 13.1174 5.75736 14.2426C6.88258 15.3679 8.4087 16 10 16C11.5913 16 13.1174 15.3679 14.2426 14.2426C15.3679 13.1174 16 11.5913 16 10C16 8.4087 15.3679 6.88258 14.2426 5.75736C13.1174 4.63214 11.5913 4 10 4ZM10 5.75C10.4805 5.74998 10.9508 5.88844 11.3547 6.14878C11.7585 6.40913 12.0788 6.78033 12.2771 7.21797C12.4755 7.65561 12.5435 8.14114 12.4731 8.61645C12.4026 9.09175 12.1967 9.53668 11.88 9.898C12.445 10.354 12.8 11.015 12.8 11.75C12.8 13.13 11.546 14.25 10 14.25C8.454 14.25 7.2 13.13 7.2 11.75C7.2 11.015 7.555 10.354 8.12 9.897C7.80358 9.53566 7.59794 9.09082 7.52768 8.61568C7.45743 8.14054 7.52553 7.65522 7.72385 7.21777C7.92216 6.78032 8.24229 6.40925 8.64595 6.14896C9.0496 5.88866 9.5197 5.75015 10 5.75ZM10 10.75C9.247 10.75 8.7 11.238 8.7 11.75C8.7 12.262 9.247 12.75 10 12.75C10.753 12.75 11.3 12.262 11.3 11.75C11.3 11.238 10.753 10.75 10 10.75ZM10 7.25C9.73478 7.25 9.48043 7.35536 9.29289 7.54289C9.10536 7.73043 9 7.98478 9 8.25C9 8.51522 9.10536 8.76957 9.29289 8.95711C9.48043 9.14464 9.73478 9.25 10 9.25C10.2652 9.25 10.5196 9.14464 10.7071 8.95711C10.8946 8.76957 11 8.51522 11 8.25C11 7.98478 10.8946 7.73043 10.7071 7.54289C10.5196 7.35536 10.2652 7.25 10 7.25Z" fill="#2C2D2E" fill-opacity="0.6"/>
</svg>
