<svg width="22" height="18" viewBox="0 0 22 18" fill="none" xmlns="http://www.w3.org/2000/svg">
<path d="M4 18C3.71667 18 3.479 17.904 3.287 17.712C3.09567 17.5207 3 17.2833 3 17V16C2.16667 16 1.45833 15.7083 0.875 15.125C0.291667 14.5417 0 13.8333 0 13V8C0 7.45 0.196 6.979 0.588 6.587C0.979333 6.19567 1.45 6 2 6C2.55 6 3.02067 6.19567 3.412 6.587C3.804 6.979 4 7.45 4 8V12H18V8C18 7.45 18.1957 6.979 18.587 6.587C18.979 6.19567 19.45 6 20 6C20.55 6 21.021 6.19567 21.413 6.587C21.8043 6.979 22 7.45 22 8V13C22 13.8333 21.7083 14.5417 21.125 15.125C20.5417 15.7083 19.8333 16 19 16V17C19 17.2833 18.904 17.5207 18.712 17.712C18.5207 17.904 18.2833 18 18 18C17.7167 18 17.4793 17.904 17.288 17.712C17.096 17.5207 17 17.2833 17 17V16H5V17C5 17.2833 4.90433 17.5207 4.713 17.712C4.521 17.904 4.28333 18 4 18ZM6 10V8C6 7.08333 5.72067 6.26233 5.162 5.537C4.604 4.81233 3.88333 4.3 3 4V3C3 2.16667 3.29167 1.45833 3.875 0.875C4.45833 0.291667 5.16667 0 6 0H16C16.8333 0 17.5417 0.291667 18.125 0.875C18.7083 1.45833 19 2.16667 19 3V4C18.1 4.23333 17.375 4.72067 16.825 5.462C16.275 6.204 16 7.05 16 8V10H6Z" fill="#2C2D2E" fill-opacity="0.6"/>
</svg>
