<svg width="20" height="20" viewBox="0 0 20 20" fill="none" xmlns="http://www.w3.org/2000/svg">
<path d="M5 7C4.45 7 3.97933 6.804 3.588 6.412C3.196 6.02067 3 5.55 3 5C3 4.45 3.196 3.97933 3.588 3.588C3.97933 3.196 4.45 3 5 3C5.55 3 6.02067 3.196 6.412 3.588C6.804 3.97933 7 4.45 7 5C7 5.55 6.804 6.02067 6.412 6.412C6.02067 6.804 5.55 7 5 7ZM3 20C2.71667 20 2.479 19.904 2.287 19.712C2.09567 19.5207 2 19.2833 2 19C1.45 19 0.979333 18.8043 0.588 18.413C0.196 18.021 0 17.55 0 17V11H3V10.25C3 9.61667 3.21667 9.08333 3.65 8.65C4.08333 8.21667 4.61667 8 5.25 8C5.58333 8 5.89167 8.06667 6.175 8.2C6.45833 8.33333 6.71667 8.51667 6.95 8.75L8.35 10.3C8.48333 10.4333 8.61267 10.5583 8.738 10.675C8.86267 10.7917 9 10.9 9.15 11H16V2.85C16 2.61667 15.9167 2.41667 15.75 2.25C15.5833 2.08333 15.3833 2 15.15 2C15.05 2 14.9543 2.02067 14.863 2.062C14.771 2.104 14.6833 2.16667 14.6 2.25L13.35 3.5C13.4333 3.78333 13.45 4.06267 13.4 4.338C13.35 4.61267 13.25 4.86667 13.1 5.1L10.35 2.3C10.5833 2.15 10.8333 2.054 11.1 2.012C11.3667 1.97067 11.6333 2 11.9 2.1L13.15 0.85C13.4167 0.583333 13.7207 0.375 14.062 0.225C14.404 0.0749999 14.7667 0 15.15 0C15.95 0 16.625 0.275 17.175 0.825C17.725 1.375 18 2.05 18 2.85V11H20V17C20 17.55 19.8043 18.021 19.413 18.413C19.021 18.8043 18.55 19 18 19C18 19.2833 17.904 19.5207 17.712 19.712C17.5207 19.904 17.2833 20 17 20H3Z" fill="#2C2D2E" fill-opacity="0.6"/>
</svg>
