<svg width="21" height="21" viewBox="0 0 21 21" fill="none" xmlns="http://www.w3.org/2000/svg">
<path d="M3 21C2.16667 21 1.45833 20.7083 0.875 20.125C0.291667 19.5417 0 18.8333 0 18V11.975C0 11.5583 0.0833333 11.1623 0.25 10.787C0.416667 10.4123 0.65 10.0833 0.95 9.8L8.125 3L9.225 4.15C9.39167 4.33333 9.48333 4.53733 9.5 4.762C9.51667 4.98733 9.46667 5.2 9.35 5.4L7.875 8H17.825C18.1583 8 18.4377 8.125 18.663 8.375C18.8877 8.625 19 8.91667 19 9.25C19 9.6 18.8793 9.89567 18.638 10.137C18.396 10.379 18.1 10.5 17.75 10.5H11V11.5H19.75C20.1 11.5 20.396 11.621 20.638 11.863C20.8793 12.1043 21 12.4 21 12.75C21 13.1 20.8793 13.3957 20.638 13.637C20.396 13.879 20.1 14 19.75 14H11V15H18.75C19.1 15 19.396 15.121 19.638 15.363C19.8793 15.6043 20 15.9 20 16.25C20 16.6 19.8793 16.8957 19.638 17.137C19.396 17.379 19.1 17.5 18.75 17.5H11V18.5H16.75C17.1 18.5 17.396 18.621 17.638 18.863C17.8793 19.1043 18 19.4 18 19.75C18 20.1 17.8793 20.3957 17.638 20.637C17.396 20.879 17.1 21 16.75 21H3ZM13.975 7L14.1 6.4C14.1833 6 14.1543 5.6 14.013 5.2C13.871 4.8 13.65 4.45 13.35 4.15C12.85 3.63333 12.4877 3.054 12.263 2.412C12.0377 1.77067 11.9667 1.10833 12.05 0.425L12.1 0H14L13.9 0.6C13.8333 1 13.8543 1.39167 13.963 1.775C14.071 2.15833 14.275 2.5 14.575 2.8C15.075 3.31667 15.45 3.904 15.7 4.562C15.95 5.22067 16.0333 5.89167 15.95 6.575L15.9 7H13.975ZM17.975 7L18.1 6.4C18.1833 6 18.1543 5.6 18.013 5.2C17.871 4.8 17.65 4.45 17.35 4.15C16.85 3.63333 16.4877 3.054 16.263 2.412C16.0377 1.77067 15.9667 1.10833 16.05 0.425L16.1 0H18L17.9 0.6C17.8333 1 17.854 1.39167 17.962 1.775C18.0707 2.15833 18.275 2.5 18.575 2.8C19.075 3.31667 19.45 3.904 19.7 4.562C19.95 5.22067 20.0333 5.89167 19.95 6.575L19.9 7H17.975Z" fill="#2C2D2E" fill-opacity="0.6"/>
</svg>
