<svg width="17" height="21" viewBox="0 0 17 21" fill="none" xmlns="http://www.w3.org/2000/svg">
<path d="M13.2753 14.525C14.0419 14.525 14.6919 14.7917 15.2253 15.325C15.7586 15.8583 16.0253 16.5083 16.0253 17.275C16.0253 18.0417 15.7586 18.6917 15.2253 19.225C14.6919 19.7583 14.0419 20.025 13.2753 20.025C12.6753 20.025 12.1336 19.8458 11.6503 19.4875C11.1669 19.1292 10.8419 18.6583 10.6753 18.075H3.35026L2.32526 19.65C2.20859 19.8333 2.05443 19.95 1.86276 20C1.67109 20.05 1.49193 20.0167 1.32526 19.9C1.14193 19.7667 1.02109 19.6042 0.96276 19.4125C0.904427 19.2208 0.933594 19.0333 1.05026 18.85L5.60026 11.95C4.35026 11.4667 3.33776 10.7125 2.56276 9.6875C1.78776 8.6625 1.33359 7.475 1.20026 6.125H14.8503C14.7169 7.475 14.2503 8.65833 13.4503 9.675C12.6503 10.6917 11.6503 11.4417 10.4503 11.925L11.9003 14.175C11.6669 14.2917 11.4419 14.425 11.2253 14.575C11.0086 14.725 10.8336 14.8917 10.7003 15.075L8.92526 12.325C8.82526 12.3583 8.69193 12.375 8.52526 12.375H7.55026C7.38359 12.375 7.24193 12.3583 7.12526 12.325L4.35026 16.575H10.6753C10.8419 15.975 11.1628 15.4833 11.6378 15.1C12.1128 14.7167 12.6586 14.525 13.2753 14.525ZM13.2753 18.525C13.6253 18.525 13.9211 18.4042 14.1628 18.1625C14.4044 17.9208 14.5253 17.625 14.5253 17.275C14.5253 16.925 14.4044 16.6292 14.1628 16.3875C13.9211 16.1458 13.6253 16.025 13.2753 16.025C12.9253 16.025 12.6294 16.1458 12.3878 16.3875C12.1461 16.6292 12.0253 16.925 12.0253 17.275C12.0253 17.625 12.1461 17.9208 12.3878 18.1625C12.6294 18.4042 12.9253 18.525 13.2753 18.525ZM6.12526 5.175C6.20859 4.70833 6.19609 4.3 6.08776 3.95C5.97943 3.6 5.73359 3.16667 5.35026 2.65C4.98359 2.16667 4.75026 1.7375 4.65026 1.3625C4.55026 0.9875 4.54193 0.533333 4.62526 0H5.37526C5.32526 0.55 5.35026 0.9875 5.45026 1.3125C5.55026 1.6375 5.77526 2.03333 6.12526 2.5C6.45859 2.96667 6.68359 3.39583 6.80026 3.7875C6.91693 4.17917 6.94193 4.64167 6.87526 5.175H6.12526ZM8.05026 5.175C8.10026 4.575 8.07526 4.1125 7.97526 3.7875C7.87526 3.4625 7.65026 3.08333 7.30026 2.65C6.93359 2.18333 6.69609 1.75833 6.58776 1.375C6.47943 0.991667 6.46693 0.533333 6.55026 0H7.30026C7.21693 0.433333 7.22526 0.825 7.32526 1.175C7.42526 1.525 7.66693 1.96667 8.05026 2.5C8.38359 2.95 8.60443 3.375 8.71276 3.775C8.82109 4.175 8.85026 4.64167 8.80026 5.175H8.05026ZM9.95026 5.175C10.0169 4.59167 10.0003 4.13333 9.90026 3.8C9.80026 3.46667 9.57526 3.08333 9.22526 2.65C8.84193 2.16667 8.59609 1.73333 8.48776 1.35C8.37943 0.966667 8.36693 0.516667 8.45026 0H9.20026C9.11693 0.433333 9.12943 0.825 9.23776 1.175C9.34609 1.525 9.59193 1.96667 9.97526 2.5C10.3086 2.93333 10.5294 3.35 10.6378 3.75C10.7461 4.15 10.7669 4.625 10.7003 5.175H9.95026Z" fill="#2C2D2E" fill-opacity="0.6"/>
</svg>
