<svg width="21" height="18" viewBox="0 0 21 18" fill="none" xmlns="http://www.w3.org/2000/svg">
<path d="M3.5 7C3.04037 7 2.58525 6.90947 2.16061 6.73358C1.73597 6.55769 1.35013 6.29988 1.02513 5.97487C0.700121 5.64987 0.442313 5.26403 0.266422 4.83939C0.0905301 4.41475 0 3.95963 0 3.5C0 3.04037 0.0905301 2.58525 0.266422 2.16061C0.442313 1.73597 0.700121 1.35013 1.02513 1.02513C1.35013 0.700121 1.73597 0.442313 2.16061 0.266422C2.58525 0.0905301 3.04037 -9.6859e-09 3.5 0C4.42826 1.95616e-08 5.3185 0.368749 5.97487 1.02513C6.63125 1.6815 7 2.57174 7 3.5C7 4.42826 6.63125 5.3185 5.97487 5.97487C5.3185 6.63125 4.42826 7 3.5 7ZM3.5 5C3.89782 5 4.27936 4.84196 4.56066 4.56066C4.84196 4.27936 5 3.89782 5 3.5C5 3.10218 4.84196 2.72064 4.56066 2.43934C4.27936 2.15804 3.89782 2 3.5 2C3.10218 2 2.72064 2.15804 2.43934 2.43934C2.15804 2.72064 2 3.10218 2 3.5C2 3.89782 2.15804 4.27936 2.43934 4.56066C2.72064 4.84196 3.10218 5 3.5 5ZM21 7H19C19 5.93913 18.5786 4.92172 17.8284 4.17157C17.0783 3.42143 16.0609 3 15 3C13.9391 3 12.9217 3.42143 12.1716 4.17157C11.4214 4.92172 11 5.93913 11 7V12C11 13.0609 11.4214 14.0783 12.1716 14.8284C12.9217 15.5786 13.9391 16 15 16C16.0609 16 17.0783 15.5786 17.8284 14.8284C18.5786 14.0783 19 13.0609 19 12H21C21 13.5913 20.3679 15.1174 19.2426 16.2426C18.1174 17.3679 16.5913 18 15 18C13.4087 18 11.8826 17.3679 10.7574 16.2426C9.63214 15.1174 9 13.5913 9 12V7C9 5.4087 9.63214 3.88258 10.7574 2.75736C11.8826 1.63214 13.4087 1 15 1C16.5913 1 18.1174 1.63214 19.2426 2.75736C20.3679 3.88258 21 5.4087 21 7Z" fill="#2C2D2E" fill-opacity="0.6"/>
</svg>
