<svg width="21" height="21" viewBox="0 0 21 21" fill="none" xmlns="http://www.w3.org/2000/svg">
<path d="M9.5 0C12.0196 0 14.4359 1.00089 16.2175 2.78249C17.9991 4.56408 19 6.98044 19 9.5C19.0023 10.9769 18.6588 12.4337 17.997 13.754L20.46 16.218C20.6475 16.4055 20.7528 16.6598 20.7528 16.925C20.7528 17.1902 20.6475 17.4445 20.46 17.632L17.632 20.46C17.4445 20.6475 17.1902 20.7528 16.925 20.7528C16.6598 20.7528 16.4055 20.6475 16.218 20.46L13.754 17.997C12.4337 18.6588 10.9769 19.0023 9.5 19C6.98044 19 4.56408 17.9991 2.78249 16.2175C1.00089 14.4359 0 12.0196 0 9.5C0 6.98044 1.00089 4.56408 2.78249 2.78249C4.56408 1.00089 6.98044 3.75443e-08 9.5 0ZM14.803 13.388L13.389 14.802L16.925 18.337L18.339 16.923L14.803 13.388ZM16.667 7.283L7.283 16.667C7.983 16.883 8.728 17 9.5 17C10.4376 17.0012 11.3671 16.8262 12.24 16.484L11.268 15.51C11.0805 15.3225 10.9752 15.0682 10.9752 14.803C10.9752 14.5378 11.0805 14.2835 11.268 14.096L14.096 11.268C14.2835 11.0805 14.5378 10.9752 14.803 10.9752C15.0682 10.9752 15.3225 11.0805 15.51 11.268L16.484 12.24C16.8262 11.3671 17.0012 10.4376 17 9.5C17 8.728 16.883 7.984 16.667 7.283Z" fill="#2C2D2E" fill-opacity="0.6"/>
</svg>
