<svg width="19" height="20" viewBox="0 0 19 20" fill="none" xmlns="http://www.w3.org/2000/svg">
<path d="M2.3253 11.35C2.44197 11.1667 2.5253 10.9707 2.5753 10.762C2.6253 10.554 2.6503 10.3 2.6503 10C2.6503 9.46667 2.48364 8.84567 2.1503 8.137C1.81697 7.429 1.6503 6.84167 1.6503 6.375C1.6503 6.20833 1.6713 6.025 1.7133 5.825C1.75463 5.625 1.84197 5.4 1.9753 5.15H3.1753C3.0253 5.4 2.93364 5.62067 2.9003 5.812C2.86697 6.004 2.8503 6.19167 2.8503 6.375C2.8503 6.80833 3.01697 7.38333 3.3503 8.1C3.68363 8.81667 3.8503 9.45 3.8503 10C3.8503 10.3 3.8213 10.554 3.7633 10.762C3.70464 10.9707 3.6253 11.1667 3.5253 11.35H2.3253ZM8.8253 11.35C8.94197 11.1667 9.0253 10.9707 9.0753 10.762C9.1253 10.554 9.1503 10.3 9.1503 10C9.1503 9.46667 8.98363 8.84567 8.6503 8.137C8.31697 7.429 8.1503 6.84167 8.1503 6.375C8.1503 6.20833 8.1713 6.025 8.2133 5.825C8.25464 5.625 8.34197 5.4 8.4753 5.15H9.6753C9.5253 5.4 9.43364 5.62067 9.4003 5.812C9.36697 6.004 9.3503 6.19167 9.3503 6.375C9.3503 6.80833 9.51697 7.38333 9.8503 8.1C10.1836 8.81667 10.3503 9.45 10.3503 10C10.3503 10.3 10.3213 10.554 10.2633 10.762C10.2046 10.9707 10.1253 11.1667 10.0253 11.35H8.8253ZM5.5753 11.35C5.69197 11.1667 5.7753 10.9707 5.8253 10.762C5.8753 10.554 5.9003 10.3 5.9003 10C5.9003 9.46667 5.73363 8.84567 5.4003 8.137C5.06697 7.429 4.9003 6.84167 4.9003 6.375C4.9003 6.20833 4.9213 6.025 4.9633 5.825C5.00463 5.625 5.09197 5.4 5.2253 5.15H6.4253C6.2753 5.4 6.18363 5.62067 6.1503 5.812C6.11697 6.004 6.1003 6.19167 6.1003 6.375C6.1003 6.80833 6.26697 7.38333 6.6003 8.1C6.93364 8.81667 7.1003 9.45 7.1003 10C7.1003 10.3 7.0713 10.554 7.0133 10.762C6.95463 10.9707 6.8753 11.1667 6.7753 11.35H5.5753ZM6.7503 19.75C5.13364 19.75 3.71297 19.2083 2.4883 18.125C1.26297 17.0417 0.516969 15.7 0.250302 14.1C0.216969 13.8667 0.275302 13.6667 0.425302 13.5C0.575302 13.3333 0.766968 13.25 1.0003 13.25H11.7503L12.8753 2.675C12.9586 1.99167 13.2546 1.41667 13.7633 0.95C14.2713 0.483333 14.8836 0.25 15.6003 0.25C16.367 0.25 17.017 0.516667 17.5503 1.05C18.0836 1.58333 18.3503 2.23333 18.3503 3C18.3503 3.18333 18.3376 3.42067 18.3123 3.712C18.2876 4.004 18.267 4.175 18.2503 4.225L16.7753 4.025C16.7753 3.975 16.7876 3.82067 16.8123 3.562C16.8376 3.304 16.8503 3.11667 16.8503 3C16.8503 2.65 16.7296 2.354 16.4883 2.112C16.2463 1.87067 15.9503 1.75 15.6003 1.75C15.267 1.75 14.9836 1.85833 14.7503 2.075C14.517 2.29167 14.3836 2.55833 14.3503 2.875L13.2003 13.75C13.017 15.45 12.317 16.875 11.1003 18.025C9.88364 19.175 8.43363 19.75 6.7503 19.75Z" fill="#2C2D2E" fill-opacity="0.6"/>
</svg>
