<svg width="19" height="19" viewBox="0 0 19 19" fill="none" xmlns="http://www.w3.org/2000/svg">
<path d="M1.22195 0.808002L7.93895 7.525L5.11095 10.354L1.22095 6.464C0.471066 5.71389 0.0498047 4.69666 0.0498047 3.636C0.0498047 2.57534 0.471066 1.55811 1.22095 0.808002H1.22195ZM11.268 9.146L10.4139 10L17.485 17.071L16.0709 18.485L8.99995 11.415L1.92895 18.485L0.514951 17.071L9.85395 7.732C9.26595 6.275 9.87395 4.177 11.474 2.575C13.427 0.623001 16.118 0.148001 17.485 1.515C18.852 2.882 18.3769 5.573 16.4249 7.525C14.8229 9.127 12.7249 9.735 11.268 9.146Z" fill="#2C2D2E" fill-opacity="0.6"/>
</svg>
