<svg width="22" height="22" viewBox="0 0 22 22" fill="none" xmlns="http://www.w3.org/2000/svg">
<path fill-rule="evenodd" clip-rule="evenodd" d="M20.999 18.9455C21.5855 19.5305 21.5855 20.4815 20.999 21.0665C20.414 21.6515 19.4645 21.6515 18.878 21.0665L15.6515 17.8385C15.0665 17.2535 15.0665 16.3025 15.6515 15.7175C16.2365 15.1325 17.1875 15.1325 17.7725 15.7175L20.999 18.9455ZM7.32347 12.536L18.9215 0.936501C19.214 0.644001 19.6895 0.644001 19.982 0.936501C22.031 2.9855 22.031 6.3125 19.982 8.3615L11.5655 16.778C10.9805 17.3645 10.0295 17.3645 9.44447 16.778L8.38397 15.7175L3.04547 21.056C2.46047 21.641 1.50947 21.641 0.924469 21.056C0.339469 20.471 0.339469 19.52 0.924469 18.935L7.32347 12.536ZM7.06247 4.319L4.74947 2.006C4.40297 1.661 4.40297 1.1 4.74947 0.753501C5.09447 0.408501 5.65547 0.408501 6.00197 0.753501L7.32197 2.075L7.32347 2.0735L8.80397 3.554C10.2665 5.018 10.2665 7.394 8.80397 8.858C7.33997 10.322 4.96397 10.322 3.49997 8.858L2.01947 7.3775L0.750469 6.107C0.390469 5.7485 0.390469 5.165 0.750469 4.8065C1.10897 4.448 1.69247 4.448 2.05097 4.8065L4.31747 7.073C4.52297 7.2785 4.85747 7.2785 5.06297 7.073C5.25347 6.881 5.26697 6.578 5.10047 6.3725L2.15747 3.4295C1.81247 3.083 1.81247 2.522 2.15747 2.1755C2.50397 1.8305 3.06497 1.8305 3.40997 2.1755L6.30797 5.0735C6.51647 5.282 6.85397 5.282 7.06247 5.0735C7.26947 4.865 7.26947 4.5275 7.06247 4.319Z" fill="#2C2D2E" fill-opacity="0.6"/>
</svg>
