<svg width="20" height="17" viewBox="0 0 20 17" fill="none" xmlns="http://www.w3.org/2000/svg">
<path d="M0.575195 16.575V14.2H15.0502V16.575H0.575195ZM16.0502 16.575V14.2H17.2252V16.575H16.0502ZM18.2252 16.575V14.2H19.4252V16.575H18.2252ZM16.0502 13V11.7C16.0502 11.0834 15.8585 10.5917 15.4752 10.225C15.0919 9.85836 14.6335 9.67502 14.1002 9.67502H12.5502C11.7002 9.67502 10.9792 9.37502 10.3872 8.77502C9.79586 8.17502 9.5002 7.45002 9.5002 6.60002C9.5002 5.76669 9.79586 5.05836 10.3872 4.47502C10.9792 3.89169 11.7002 3.60002 12.5502 3.60002V4.80002C12.0502 4.80002 11.6169 4.97069 11.2502 5.31202C10.8835 5.65402 10.7002 6.08336 10.7002 6.60002C10.7002 7.11669 10.8835 7.56269 11.2502 7.93802C11.6169 8.31269 12.0502 8.50002 12.5502 8.50002H14.1002C14.9502 8.50002 15.6835 8.78769 16.3002 9.36302C16.9169 9.93769 17.2252 10.6417 17.2252 11.475V13H16.0502ZM18.2252 13V10.75C18.2252 9.65002 17.8419 8.72502 17.0752 7.97502C16.3085 7.22502 15.3585 6.85002 14.2252 6.85002V5.65002C14.7252 5.65002 15.1545 5.47069 15.5132 5.11202C15.8712 4.75402 16.0502 4.32502 16.0502 3.82502C16.0502 3.30836 15.8712 2.86669 15.5132 2.50002C15.1545 2.13336 14.7252 1.95002 14.2252 1.95002V0.775024C15.0752 0.775024 15.7919 1.07502 16.3752 1.67502C16.9585 2.27502 17.2502 2.99169 17.2502 3.82502C17.2502 4.30836 17.1542 4.73769 16.9622 5.11302C16.7709 5.48769 16.5252 5.80836 16.2252 6.07502C17.1252 6.42502 17.8835 7.01236 18.5002 7.83702C19.1169 8.66236 19.4252 9.63336 19.4252 10.75V13H18.2252Z" fill="#2C2D2E" fill-opacity="0.6"/>
</svg>
