<svg width="14" height="15" viewBox="0 0 14 15" fill="none" xmlns="http://www.w3.org/2000/svg">
<path fill-rule="evenodd" clip-rule="evenodd" d="M0 3.5C0 1.568 3.137 0 7 0C10.863 0 14 1.568 14 3.5V4.5C14 4.877 13.881 5.239 13.66 5.579C12.101 8.326 8.483 10.998 8.48 11V13.154C8.48 13.971 7.905 14.544 7.153 14.864C6.28 15.235 5.52 14.782 5.52 13.965V11C5.52 11 1.899 8.327 0.34 5.579C0.265 5.464 0.202 5.346 0.151 5.226C0.052 4.991 0 4.749 0 4.5V3.5ZM7 1.631C9.626 1.631 11.759 2.61 11.759 3.815C11.759 5.021 9.626 6 7 6C4.374 6 2.241 5.021 2.241 3.815C2.241 2.61 4.374 1.631 7 1.631Z" fill="#2C2D2E"/>
</svg>
