<svg width="24" height="24" viewBox="0 0 24 24" fill="none" xmlns="http://www.w3.org/2000/svg">
<path fill-rule="evenodd" clip-rule="evenodd" d="M16.365 19.209C14.6895 20.34 12.672 21 10.5 21C4.7055 21 0 16.2945 0 10.5C0 4.7055 4.7055 0 10.5 0C16.2945 0 21 4.7055 21 10.5C21 12.657 20.3475 14.664 19.23 16.3335L22.401 19.503C23.193 20.295 23.193 21.582 22.401 22.374C21.609 23.166 20.322 23.166 19.53 22.374L16.365 19.209ZM10.5 3.7155C14.2455 3.7155 17.2845 6.7545 17.2845 10.5C17.2845 14.2455 14.2455 17.2845 10.5 17.2845C6.7545 17.2845 3.7155 14.2455 3.7155 10.5C3.7155 6.7545 6.7545 3.7155 10.5 3.7155Z" fill="white"/>
</svg>
