<svg width="24" height="25" viewBox="0 0 24 25" fill="none" xmlns="http://www.w3.org/2000/svg">
   <path d="M24 23.6665C24 24.0202 23.8595 24.3593 23.6095 24.6094C23.3594 24.8594 23.0203 24.9999 22.6667 24.9999H1.33333C0.979712 24.9999 0.640573 24.8594 0.390525 24.6094C0.140476 24.3593 3.20947e-07 24.0202 3.20947e-07 23.6665V9.65321C-0.000140645 9.45002 0.0461562 9.2495 0.135355 9.06694C0.224553 8.88438 0.354294 8.72463 0.514667 8.59987L11.1813 0.303874C11.4154 0.121802 11.7035 0.0229492 12 0.0229492C12.2965 0.0229492 12.5846 0.121802 12.8187 0.303874L23.4853 8.59987C23.6457 8.72463 23.7754 8.88438 23.8646 9.06694C23.9538 9.2495 24.0001 9.45002 24 9.65321V23.6665Z" fill="#2C2D2E" fill-opacity="0.8" />
</svg>
