<svg width="24" height="22" viewBox="0 0 24 22" fill="none" xmlns="http://www.w3.org/2000/svg">
<path fill-rule="evenodd" clip-rule="evenodd" d="M21 21.5H3C1.344 21.5 0 20.156 0 18.5V15.5C0 15.5 0 11.0165 0 8.3795C0 7.1765 0.4785 6.0215 1.329 5.171C2.4855 4.0145 4.128 2.372 5.1255 1.3745C5.685 0.815 6.4455 0.5 7.236 0.5C9.54 0.5 14.46 0.5 16.764 0.5C17.5545 0.5 18.315 0.815 18.8745 1.3745C19.872 2.372 21.5145 4.0145 22.671 5.171C23.5215 6.0215 24 7.1765 24 8.3795V18.5C24 20.156 22.656 21.5 21 21.5ZM12 18.5H14.4735C14.7645 18.5 15 18.2645 15 17.9735V9.245C15 8.4485 14.6835 7.6835 14.1195 7.1195C13.437 6.437 12.456 5.456 11.535 4.535C10.863 3.863 9.951 3.485 9 3.485C8.049 3.485 7.137 3.863 6.465 4.535C5.544 5.456 4.563 6.437 3.8805 7.1195C3.3165 7.6835 3 8.4485 3 9.245V17.9735C3 18.2645 3.2355 18.5 3.5265 18.5H6V14C6 13.172 6.672 12.5 7.5 12.5H10.5C11.328 12.5 12 13.172 12 14V18.5ZM9 6.5C9.828 6.5 10.5 7.172 10.5 8C10.5 8.828 9.828 9.5 9 9.5C8.172 9.5 7.5 8.828 7.5 8C7.5 7.172 8.172 6.5 9 6.5Z" fill="#2C2D2E" fill-opacity="0.6"/>
</svg>
