<svg width="36" height="36" viewBox="0 0 36 36" fill="none" xmlns="http://www.w3.org/2000/svg">
<circle cx="18" cy="18" r="18" fill="#F0F1F3"/>
<g clip-path="url(#clip0_44_162)">
<path d="M18 8C20.717 8 21.056 8.01 22.122 8.06C23.187 8.11 23.912 8.277 24.55 8.525C25.21 8.779 25.766 9.123 26.322 9.678C26.8305 10.1779 27.224 10.7826 27.475 11.45C27.722 12.087 27.89 12.813 27.94 13.878C27.987 14.944 28 15.283 28 18C28 20.717 27.99 21.056 27.94 22.122C27.89 23.187 27.722 23.912 27.475 24.55C27.2247 25.2178 26.8311 25.8226 26.322 26.322C25.822 26.8303 25.2173 27.2238 24.55 27.475C23.913 27.722 23.187 27.89 22.122 27.94C21.056 27.987 20.717 28 18 28C15.283 28 14.944 27.99 13.878 27.94C12.813 27.89 12.088 27.722 11.45 27.475C10.7823 27.2245 10.1775 26.8309 9.678 26.322C9.16941 25.8222 8.77593 25.2175 8.525 24.55C8.277 23.913 8.11 23.187 8.06 22.122C8.013 21.056 8 20.717 8 18C8 15.283 8.01 14.944 8.06 13.878C8.11 12.812 8.277 12.088 8.525 11.45C8.77524 10.7822 9.1688 10.1773 9.678 9.678C10.1777 9.16923 10.7824 8.77573 11.45 8.525C12.088 8.277 12.812 8.11 13.878 8.06C14.944 8.013 15.283 8 18 8ZM18 13C16.6739 13 15.4021 13.5268 14.4645 14.4645C13.5268 15.4021 13 16.6739 13 18C13 19.3261 13.5268 20.5979 14.4645 21.5355C15.4021 22.4732 16.6739 23 18 23C19.3261 23 20.5979 22.4732 21.5355 21.5355C22.4732 20.5979 23 19.3261 23 18C23 16.6739 22.4732 15.4021 21.5355 14.4645C20.5979 13.5268 19.3261 13 18 13ZM24.5 12.75C24.5 12.4185 24.3683 12.1005 24.1339 11.8661C23.8995 11.6317 23.5815 11.5 23.25 11.5C22.9185 11.5 22.6005 11.6317 22.3661 11.8661C22.1317 12.1005 22 12.4185 22 12.75C22 13.0815 22.1317 13.3995 22.3661 13.6339C22.6005 13.8683 22.9185 14 23.25 14C23.5815 14 23.8995 13.8683 24.1339 13.6339C24.3683 13.3995 24.5 13.0815 24.5 12.75ZM18 15C18.7956 15 19.5587 15.3161 20.1213 15.8787C20.6839 16.4413 21 17.2044 21 18C21 18.7956 20.6839 19.5587 20.1213 20.1213C19.5587 20.6839 18.7956 21 18 21C17.2044 21 16.4413 20.6839 15.8787 20.1213C15.3161 19.5587 15 18.7956 15 18C15 17.2044 15.3161 16.4413 15.8787 15.8787C16.4413 15.3161 17.2044 15 18 15Z" fill="#2C2D2E"/>
</g>
<defs>
<clipPath id="clip0_44_162">
<rect width="24" height="24" fill="white" transform="translate(6 6)"/>
</clipPath>
</defs>
</svg>
