<svg width="15" height="18" viewBox="0 0 15 18" fill="none" xmlns="http://www.w3.org/2000/svg">
<path fill-rule="evenodd" clip-rule="evenodd" d="M2.69462 5.29653C3.14912 4.20978 3.95799 3.31766 5.00312 2.76641C5.15949 1.56153 6.18999 0.628906 7.44099 0.628906C8.69199 0.628906 9.72362 1.56153 9.87887 2.76641C10.9251 3.31766 11.7362 4.20978 12.1941 5.29653C12.1941 5.29653 12.7499 6.36078 12.9085 8.13941C12.9602 8.71316 13.1695 9.57153 13.4597 10.134C13.8197 10.8315 14.6849 12.0173 14.7906 13.3043C14.8131 13.4247 14.8244 13.5462 14.8244 13.6699C14.8244 14.0108 14.7389 14.3415 14.578 14.6554C14.5724 14.6678 14.5667 14.6802 14.5611 14.6925C14.4666 14.904 14.3789 15.0334 14.2967 15.0953C13.2077 16.5083 10.5482 17.505 7.44099 17.505C4.32474 17.505 1.65962 16.5027 0.576242 15.084C0.503117 15.021 0.424367 14.904 0.339992 14.7229C0.156617 14.3888 0.0576172 14.0355 0.0576172 13.6699C0.0576172 13.5315 0.0733672 13.3954 0.101492 13.2615C0.222992 11.9903 1.07237 10.8237 1.42787 10.134C1.71812 9.57153 1.92737 8.71316 1.97912 8.13941C2.13887 6.36078 2.69462 5.29653 2.69462 5.29653ZM7.44099 15.8198C4.55312 15.8198 1.99599 14.8399 1.99599 13.8229C1.99599 13.1187 3.33812 12.5067 4.99074 12.1973C5.09987 13.4517 6.15512 14.4372 7.44099 14.4372C8.72799 14.4372 9.78212 13.4517 9.89124 12.1973C11.5439 12.5067 12.8871 13.1187 12.8871 13.8229C12.8871 14.8399 10.33 15.8198 7.44099 15.8198Z" fill="white"/>
</svg>
