<svg width="14" height="12" viewBox="0 0 14 12" fill="none" xmlns="http://www.w3.org/2000/svg">
<path fill-rule="evenodd" clip-rule="evenodd" d="M6.99054 2.49114L7.43111 2.05142C8.09539 1.38628 9.15225 0.857422 10.0934 0.857422C11.0337 0.857422 11.9354 1.23114 12.6005 1.89628C12.6665 1.96228 12.7334 2.02914 12.8003 2.09599C13.4654 2.76028 13.8383 3.66285 13.8383 4.60314C13.8383 5.54342 13.4654 6.44514 12.8003 7.11028C11.3817 8.52804 10.5309 9.37966 8.94739 10.9631C7.86654 12.044 6.11454 12.044 5.03368 10.9631C3.74939 9.67885 2.46511 8.39457 1.18082 7.11028C0.515679 6.44514 0.142822 5.54342 0.142822 4.60314C0.142822 3.66285 0.515679 2.76028 1.18082 2.09599C1.24768 2.02914 1.31454 1.96228 1.38054 1.89628C2.04568 1.23114 2.94739 0.857422 3.88768 0.857422C4.82882 0.857422 5.88482 1.38542 6.54997 2.05056L6.99054 2.49114Z" fill="#2C2D2E"/>
</svg>
