<svg width="77" height="24" viewBox="0 0 77 24" fill="none" xmlns="http://www.w3.org/2000/svg">
<path fill-rule="evenodd" clip-rule="evenodd" d="M76.5658 9.94543C77.1112 10.7798 77.1661 12.0949 76.5872 13.114C76.0703 14.0243 72.9767 17.5172 71.97 18.6396C71.0974 19.6145 69.9196 20.5909 68.7603 20.5909H44.4872C41.2067 20.5909 41.0088 19.4018 41.0088 16.7135V5.8083C41.0088 3.06266 41.7667 2.26904 44.0069 2.26904H68.7603C69.9196 2.26904 70.9512 2.90168 72.1362 4.18982C73.1422 5.28291 76.1473 9.3035 76.5658 9.94543Z" fill="#33CCCC"/>
<path fill-rule="evenodd" clip-rule="evenodd" d="M76.5658 9.94543C77.1112 10.7798 77.1661 12.0949 76.5872 13.114C76.0703 14.0243 72.9767 17.5172 71.97 18.6396C71.0974 19.6145 69.9196 20.5909 68.7603 20.5909H44.4872C41.2067 20.5909 41.0088 19.4018 41.0088 16.7135V5.8083C41.0088 3.06266 41.7667 2.26904 44.0069 2.26904H68.7603C69.9196 2.26904 70.9512 2.90168 72.1362 4.18982C73.1422 5.28291 76.1473 9.3035 76.5658 9.94543Z" fill="url(#paint0_linear_298_5859)"/>
<path fill-rule="evenodd" clip-rule="evenodd" d="M46.5114 6.48582V6.41402C46.5114 6.06341 46.4838 5.71683 45.9465 5.71683H43.918C43.4465 5.71683 43.4167 5.99557 43.4167 6.42866V9.31066C44.4041 7.8011 45.499 7.09971 46.5114 6.48582ZM60.1199 16.8996V16.7449H60.1213V9.80838C60.1213 6.89948 58.9251 5.44518 56.5329 5.44548C55.87 5.43882 55.2183 5.62927 54.6507 5.99557C54.0813 6.3625 53.5341 6.87504 53.0093 7.53318C52.7514 6.81797 52.3624 6.29123 51.8424 5.95296C51.3222 5.61469 50.6484 5.44553 49.8207 5.44548C48.8628 5.44548 47.7491 5.80425 46.9597 6.49848C46.7831 6.68758 43.4162 9.52065 43.4162 12.4303V16.8712C43.4162 17.0124 43.3525 17.5483 43.9141 17.5483H46.026C46.6825 17.5483 46.6184 17.0886 46.6184 16.8996V9.71715C46.9749 9.21165 47.7032 7.96322 48.8862 7.96322C49.3403 7.96322 49.6673 8.1275 49.8672 8.45607C50.0671 8.78463 50.1675 9.33554 50.1684 10.1088V15.7186H50.1659V16.8713C50.1659 17.0126 50.1021 17.5484 50.6635 17.5484H52.7485C53.4054 17.5484 53.3413 17.0888 53.3413 16.8998V16.745H53.3437V9.71745C53.7256 9.21195 54.4867 7.96352 55.6109 7.96352C56.0735 7.96352 56.4071 8.12781 56.6118 8.45637C56.8164 8.78494 56.9187 9.33583 56.9184 10.1091V15.7189H56.9162V16.8716C56.9162 17.0129 56.8528 17.5487 57.4146 17.5487H59.5271C60.184 17.5484 60.1199 17.0886 60.1199 16.8996ZM71.7504 14.0794C70.9997 16.2392 69.2009 17.4461 66.9721 17.4461C63.7439 17.4461 61.6114 15.0943 61.6114 11.567C61.6114 8.08228 63.8251 5.55638 66.8716 5.55638C69.8853 5.55638 71.9066 7.80018 72.0349 11.4146C72.0513 11.8764 71.9251 12.2844 71.3854 12.2844H64.5352C64.5759 14.2226 65.45 15.268 66.9928 15.268C67.9339 15.268 68.4915 14.8342 68.977 13.9841C69.188 13.6142 69.6208 13.6348 69.6208 13.6348H71.3854C71.6734 13.6346 71.801 13.9355 71.7504 14.0792V14.0794ZM66.8716 7.79881C65.5911 7.79881 64.6978 8.75683 64.5352 10.3255H69.1253C69.0034 8.95341 68.3125 7.79881 66.8716 7.79881Z" fill="white"/>
<path fill-rule="evenodd" clip-rule="evenodd" d="M12.6072 2.36908C12.3359 1.9068 11.9839 1.50467 11.5704 1.1846C11.157 0.874051 10.703 0.630558 10.2229 0.462023C9.68976 0.276365 9.13907 0.154054 8.58089 0.0973044C7.94229 0.0301682 7.30098 -0.00226713 6.65936 0.000123038H1.03622C0.530585 0.000123038 0.000568506 0.355162 0.000568506 1.02469V10.7726C0.712892 12.3973 2.10046 14.1221 3.67804 14.9464V13.0132C3.67804 11.993 4.39663 11.7651 4.69387 11.7651H6.3565C8.6467 11.7651 10.3947 11.2509 11.6004 10.2226C12.8062 9.19578 13.409 7.67052 13.409 5.64681C13.4124 5.06208 13.349 4.47908 13.2201 3.9108C13.092 3.36595 12.8852 2.84579 12.6072 2.36908ZM9.33043 7.37536C9.13629 7.73561 8.84668 8.02632 8.49826 8.21092C8.1206 8.40353 7.71264 8.51909 7.29535 8.55163C6.84088 8.59493 6.37158 8.61665 5.88744 8.61673H4.30744C3.92094 8.61673 3.67804 8.28036 3.67804 7.78416V3.79876C3.67804 3.3518 3.9506 3.16429 4.27742 3.16429H5.88744C6.41189 3.16429 6.90372 3.18047 7.36294 3.21284C7.77624 3.233 8.18213 3.33776 8.55858 3.52146C8.8941 3.69221 9.17179 3.97006 9.35339 4.31668C9.54475 4.67314 9.64043 5.1762 9.64057 5.82586C9.64057 6.48548 9.53719 7.00198 9.33043 7.37536ZM3.67804 15.5764C1.94297 14.8352 0.779768 13.9511 0.000568506 13.0745V17.7804C0.000568506 17.7804 -0.0635987 18.5479 0.635105 18.5479H3.08834C3.76131 18.5479 3.67832 17.7804 3.67832 17.7804V15.5764H3.67804ZM38.4452 5.12821H36.2435C35.7961 5.12821 35.5012 5.32928 35.3238 5.85536C35.1463 6.38143 32.8127 13.3299 32.8127 13.3299C32.8127 13.3299 30.5803 6.52496 30.4046 5.99804C30.229 5.47112 29.9405 5.12821 29.4207 5.12821H27.3977C26.684 5.12821 26.684 5.72753 26.7725 5.96519C26.8443 6.15727 29.6147 14.2753 30.6699 17.3679C30.9187 18.0981 31.017 18.3178 31.0247 18.5883C31.0324 18.8588 30.7752 19.4267 30.5974 19.7526C30.5158 19.9013 30.422 20.0422 30.3173 20.1734C32.3859 19.5112 34.7701 17.1086 36.003 14.5057C37.2222 10.8783 38.8299 6.08646 38.8997 5.84133C39.0118 5.44429 39.0107 5.12821 38.4452 5.12821ZM28.7233 20.8636C28.5322 20.8601 28.3414 20.8453 28.1518 20.8195C27.9197 20.7867 27.4855 20.833 27.4855 21.2396V23.057C27.4855 23.7506 27.7957 23.7969 27.9664 23.8379C28.4802 23.9524 29.0042 24.0065 29.529 23.9994C30.2245 23.9994 30.8297 23.8641 31.3446 23.5936C31.8645 23.3185 32.3278 22.9351 32.7071 22.4659C33.1254 21.9435 33.4789 21.3655 33.7588 20.7463C34.0662 20.0811 34.3612 19.3482 34.644 18.5477C34.644 18.5477 34.7652 18.186 34.9648 17.5934C34.3575 18.2488 31.4951 21.1506 28.7233 20.8636ZM25.4169 7.28565C25.2975 6.98189 25.1343 6.69999 24.9333 6.45019C24.733 6.21039 24.5038 6.00021 24.2516 5.82517C23.9795 5.63603 23.6908 5.47569 23.3896 5.34643C23.0821 5.21803 22.7658 5.11508 22.4435 5.03849C22.0771 4.95271 21.7054 4.89578 21.3313 4.86814C20.9273 4.83597 20.4731 4.81976 19.9688 4.81951C16.6335 4.81951 14.7343 5.94649 14.2712 8.20048C14.1206 8.89989 14.7678 8.94097 14.7678 8.94097H16.8196C17.3553 8.94097 17.3322 8.75644 17.5922 8.23859C17.6858 7.9568 17.8543 7.7103 18.077 7.52932C18.4708 7.20503 19.061 7.04286 19.8476 7.0428C20.6045 7.0428 21.1544 7.19949 21.4973 7.51286C21.8402 7.82624 22.0419 8.30224 22.1027 8.94097C22.1027 9.68161 21.8866 10.1758 21.0491 10.1758C19.0074 10.0965 16.8134 10.3434 15.5777 11.1008C14.342 11.8583 13.6434 13.339 13.6434 14.9292C13.6434 15.5779 13.7519 16.1458 13.9689 16.6331C14.1791 17.1107 14.49 17.53 14.8771 17.8579C15.2878 18.2004 15.7586 18.4515 16.2616 18.5963C16.8333 18.7639 17.424 18.846 18.0168 18.8402C18.9048 18.8402 19.6894 18.7211 20.3705 18.483C21.0514 18.2454 22.1052 17.4617 22.2393 17.3473V17.7651C22.2393 18.1791 22.3572 18.5483 22.8193 18.5483H25.2053C25.6882 18.5483 25.7956 18.1791 25.7956 17.7247V9.86622C25.7998 9.37772 25.7695 8.8896 25.705 8.40597C25.6538 8.02098 25.557 7.64453 25.4169 7.28565ZM22.1633 14.9906C22.1633 14.9906 21.5472 16.3588 19.3483 16.3588C18.7433 16.3588 18.2515 16.2128 17.8728 15.9209C17.4941 15.629 17.3049 15.1746 17.3051 14.5578C17.3051 13.7567 17.6129 13.1912 18.2286 12.8614C18.8437 12.5318 20.0752 12.3436 20.998 12.3667C21.9208 12.3897 22.1633 13.0132 22.1633 13.4436V14.9909V14.9906Z" fill="#333333"/>
<defs>
<linearGradient id="paint0_linear_298_5859" x1="88.8903" y1="7.55918" x2="83.5245" y2="37.8731" gradientUnits="userSpaceOnUse">
<stop offset="0.47231" stop-color="#00CCCC"/>
<stop offset="1" stop-color="#3399FF"/>
</linearGradient>
</defs>
</svg>
