<svg width="32" height="32" viewBox="0 0 32 32" fill="none" xmlns="http://www.w3.org/2000/svg">
<path fill-rule="evenodd" clip-rule="evenodd" d="M16 0C24.83 0 32 7.17 32 16C32 24.83 24.83 32 16 32C7.17 32 0 24.83 0 16C0 7.17 7.17 0 16 0ZM18 14V9.2C18 8.538 17.462 8 16.8 8H15.2C14.538 8 14 8.538 14 9.2V14H9.2C8.538 14 8 14.538 8 15.2V16.8C8 17.462 8.538 18 9.2 18H14V22.8C14 23.462 14.538 24 15.2 24H16.8C17.462 24 18 23.462 18 22.8V18H22.8C23.462 18 24 17.462 24 16.8V15.2C24 14.538 23.462 14 22.8 14H18Z" fill="#2C2D2E" fill-opacity="0.8"/>
</svg>
