<svg width="35" height="35" viewBox="0 0 35 35" fill="none" xmlns="http://www.w3.org/2000/svg">
<path fill-rule="evenodd" clip-rule="evenodd" d="M24.5475 28.8135C22.0343 30.51 19.008 31.5 15.75 31.5C7.05825 31.5 0 24.4417 0 15.75C0 7.05825 7.05825 0 15.75 0C24.4417 0 31.5 7.05825 31.5 15.75C31.5 18.9855 30.5212 21.996 28.845 24.5002L33.6015 29.2545C34.7895 30.4425 34.7895 32.373 33.6015 33.561C32.4135 34.749 30.483 34.749 29.295 33.561L24.5475 28.8135ZM15.75 5.57325C21.3682 5.57325 25.9267 10.1317 25.9267 15.75C25.9267 21.3682 21.3682 25.9267 15.75 25.9267C10.1317 25.9267 5.57325 21.3682 5.57325 15.75C5.57325 10.1317 10.1317 5.57325 15.75 5.57325Z" fill="white"/>
</svg>
