<svg width="36" height="36" viewBox="0 0 36 36" fill="none" xmlns="http://www.w3.org/2000/svg">
<circle cx="18" cy="18" r="18" fill="#F0F1F3"/>
<g clip-path="url(#clip0_44_159)">
<path d="M18 28C12.477 28 8 23.523 8 18C8 12.477 12.477 8 18 8C23.523 8 28 12.477 28 18C28 23.523 23.523 28 18 28ZM14.89 19.17L14.903 19.163L15.773 22.033C15.885 22.344 16.039 22.4 16.226 22.374C16.414 22.349 16.513 22.248 16.636 22.13L17.824 20.982L20.374 22.87C20.84 23.127 21.175 22.994 21.291 22.438L22.948 14.616C23.131 13.888 22.811 13.596 22.246 13.828L12.513 17.588C11.849 17.854 11.853 18.226 12.393 18.391L14.89 19.171V19.17Z" fill="#2C2D2E"/>
</g>
<defs>
<clipPath id="clip0_44_159">
<rect width="24" height="24" fill="white" transform="translate(6 6)"/>
</clipPath>
</defs>
</svg>
