<svg width="28" height="28" viewBox="0 0 28 28" fill="none" xmlns="http://www.w3.org/2000/svg">
<path d="M14 0C21.728 0 28 6.272 28 14C28 21.728 21.728 28 14 28C6.272 28 0 21.728 0 14C0 6.272 6.272 0 14 0ZM5.6322 18.7824C7.6874 21.8484 10.773 23.8 14.224 23.8C17.6736 23.8 20.7606 21.8498 22.8144 18.7824C20.4844 16.6048 17.4131 15.3955 14.224 15.4C11.0344 15.3952 7.96252 16.6045 5.6322 18.7824ZM14 12.6C15.1139 12.6 16.1822 12.1575 16.9698 11.3698C17.7575 10.5822 18.2 9.51391 18.2 8.4C18.2 7.28609 17.7575 6.2178 16.9698 5.43015C16.1822 4.6425 15.1139 4.2 14 4.2C12.8861 4.2 11.8178 4.6425 11.0302 5.43015C10.2425 6.2178 9.8 7.28609 9.8 8.4C9.8 9.51391 10.2425 10.5822 11.0302 11.3698C11.8178 12.1575 12.8861 12.6 14 12.6Z" fill="#2C2D2E" fill-opacity="0.8"/>
</svg>
