<svg width="22" height="18" viewBox="0 0 22 18" fill="none" xmlns="http://www.w3.org/2000/svg">
<path fill-rule="evenodd" clip-rule="evenodd" d="M20 15C20.828 15 21.5 15.672 21.5 16.5C21.5 17.328 20.828 18 20 18H2C1.172 18 0.5 17.328 0.5 16.5C0.5 15.672 1.172 15 2 15H20ZM20 7.5C20.828 7.5 21.5 8.172 21.5 9C21.5 9.828 20.828 10.5 20 10.5H2C1.172 10.5 0.5 9.828 0.5 9C0.5 8.172 1.172 7.5 2 7.5H20ZM20 0C20.828 0 21.5 0.672 21.5 1.5C21.5 2.328 20.828 3 20 3H2C1.172 3 0.5 2.328 0.5 1.5C0.5 0.672 1.172 0 2 0H20Z" fill="white"/>
</svg>
