<svg width="36" height="36" viewBox="0 0 36 36" fill="none" xmlns="http://www.w3.org/2000/svg">
<circle cx="18" cy="18" r="18" fill="#F0F1F3"/>
<g clip-path="url(#clip0_44_160)">
<path d="M27.543 12.498C28 14.28 28 18 28 18C28 18 28 21.72 27.543 23.502C27.289 24.487 26.546 25.262 25.605 25.524C23.896 26 18 26 18 26C18 26 12.107 26 10.395 25.524C9.45 25.258 8.708 24.484 8.457 23.502C8 21.72 8 18 8 18C8 18 8 14.28 8.457 12.498C8.711 11.513 9.454 10.738 10.395 10.476C12.107 10 18 10 18 10C18 10 23.896 10 25.605 10.476C26.55 10.742 27.292 11.516 27.543 12.498ZM16 21.5L22 18L16 14.5V21.5Z" fill="#2C2D2E"/>
</g>
<defs>
<clipPath id="clip0_44_160">
<rect width="24" height="24" fill="white" transform="translate(6 6)"/>
</clipPath>
</defs>
</svg>
